<svg xmlns="http://www.w3.org/2000/svg" width="110" viewBox="0 0 375 375" height="110" version="1.0"><defs><clipPath id="a"><path d="M 22.359375 22 L 352.359375 22 L 352.359375 353.257812 L 22.359375 353.257812 Z M 22.359375 22"/></clipPath></defs><path fill="#FFF" d="M-37.5 -37.5H412.5V412.5H-37.5z"/><path fill="#FFF" d="M-37.5 -37.5H412.5V412.5H-37.5z"/><path fill="#3D9AE2" d="M 96.761719 347.914062 L 278.484375 347.914062 L 278.484375 321.203125 L 96.761719 321.203125 Z M 96.761719 347.914062"/><path fill="#1A6FB0" d="M 347.296875 155.585938 L 278.484375 176.957031 L 278.484375 321.203125 L 96.761719 321.203125 L 96.761719 176.957031 L 27.949219 155.585938 L 64.691406 48.738281 L 150.207031 27.367188 C 150.207031 45.070312 166.957031 59.421875 187.621094 59.421875 C 208.289062 59.421875 225.035156 45.070312 225.035156 27.367188 L 310.550781 48.738281 Z M 347.296875 155.585938"/><path fill="#FF9811" d="M 219.691406 160.929688 C 219.691406 178.632812 205.332031 192.984375 187.621094 192.984375 C 169.910156 192.984375 155.554688 178.632812 155.554688 160.929688 C 155.554688 143.222656 169.910156 128.875 187.621094 128.875 C 205.332031 128.875 219.691406 143.222656 219.691406 160.929688 Z M 219.691406 160.929688"/><path fill="#E0E0E2" d="M 221.636719 126.929688 L 229.195312 119.375"/><path fill="#E0E0E2" d="M 146.050781 202.480469 L 153.609375 194.925781"/><path fill="#E0E0E2" d="M 153.609375 126.929688 L 146.050781 119.375"/><path fill="#E0E0E2" d="M 229.195312 202.480469 L 221.636719 194.925781"/><g clip-path="url(#a)"><path d="M 352.351562 153.851562 L 315.605469 47 C 315.015625 45.289062 313.601562 43.996094 311.84375 43.554688 L 226.328125 22.183594 C 224.734375 21.785156 223.042969 22.140625 221.746094 23.15625 C 220.449219 24.171875 219.691406 25.722656 219.691406 27.367188 C 219.691406 42.101562 205.304688 54.078125 187.621094 54.078125 C 169.9375 54.078125 155.554688 42.101562 155.554688 27.367188 C 155.554688 25.722656 154.796875 24.171875 153.496094 23.15625 C 152.199219 22.140625 150.507812 21.785156 148.914062 22.183594 L 63.398438 43.554688 C 61.640625 43.996094 60.230469 45.289062 59.636719 47 L 22.890625 153.851562 C 22.417969 155.21875 22.523438 156.714844 23.175781 158.003906 C 23.832031 159.292969 24.984375 160.261719 26.363281 160.6875 L 91.417969 180.890625 L 91.417969 347.914062 C 91.417969 350.863281 93.8125 353.257812 96.761719 353.257812 L 278.484375 353.257812 C 281.433594 353.257812 283.828125 350.863281 283.828125 347.914062 L 283.828125 180.890625 L 348.878906 160.6875 C 350.261719 160.261719 351.414062 159.292969 352.066406 158.003906 C 352.722656 156.714844 352.824219 155.21875 352.351562 153.851562 Z M 273.136719 342.570312 L 102.105469 342.570312 L 102.105469 326.542969 L 273.136719 326.542969 Z M 283.828125 169.703125 L 283.828125 112.847656 C 283.828125 109.898438 281.433594 107.503906 278.484375 107.503906 C 275.53125 107.503906 273.136719 109.898438 273.136719 112.847656 L 273.136719 315.859375 L 102.105469 315.859375 L 102.105469 112.847656 C 102.105469 109.898438 99.710938 107.503906 96.761719 107.503906 C 93.8125 107.503906 91.417969 109.898438 91.417969 112.847656 L 91.417969 169.703125 L 34.796875 152.121094 L 68.800781 53.214844 L 145.546875 34.039062 C 149.15625 51.488281 166.648438 64.765625 187.621094 64.765625 C 208.59375 64.765625 226.089844 51.488281 229.699219 34.039062 L 306.441406 53.214844 L 340.449219 152.121094 Z M 283.828125 169.703125"/></g><path d="M 187.621094 123.53125 C 172.488281 123.53125 158.847656 132.644531 153.054688 146.617188 C 147.265625 160.589844 150.464844 176.675781 161.167969 187.371094 C 171.867188 198.066406 187.960938 201.269531 201.941406 195.480469 C 215.917969 189.6875 225.035156 176.054688 225.035156 160.929688 C 225.011719 140.285156 208.273438 123.554688 187.621094 123.53125 Z M 187.621094 187.640625 C 176.8125 187.640625 167.066406 181.132812 162.933594 171.152344 C 158.796875 161.167969 161.082031 149.679688 168.722656 142.039062 C 176.367188 134.398438 187.863281 132.113281 197.847656 136.25 C 207.835938 140.382812 214.347656 150.125 214.347656 160.929688 C 214.328125 175.675781 202.375 187.625 187.621094 187.640625 Z M 187.621094 187.640625"/><path d="M 187.621094 118.1875 C 190.574219 118.1875 192.96875 115.796875 192.96875 112.847656 L 192.96875 102.160156 C 192.96875 99.210938 190.574219 96.820312 187.621094 96.820312 C 184.671875 96.820312 182.277344 99.210938 182.277344 102.160156 L 182.277344 112.847656 C 182.277344 115.796875 184.671875 118.1875 187.621094 118.1875 Z M 187.621094 118.1875"/><path d="M 187.621094 203.667969 C 184.671875 203.667969 182.277344 206.0625 182.277344 209.011719 L 182.277344 219.695312 C 182.277344 222.644531 184.671875 225.039062 187.621094 225.039062 C 190.574219 225.039062 192.96875 222.644531 192.96875 219.695312 L 192.96875 209.011719 C 192.96875 206.0625 190.574219 203.667969 187.621094 203.667969 Z M 187.621094 203.667969"/><path d="M 246.414062 155.585938 L 235.726562 155.585938 C 232.773438 155.585938 230.378906 157.980469 230.378906 160.929688 C 230.378906 163.878906 232.773438 166.269531 235.726562 166.269531 L 246.414062 166.269531 C 249.363281 166.269531 251.757812 163.878906 251.757812 160.929688 C 251.757812 157.980469 249.363281 155.585938 246.414062 155.585938 Z M 246.414062 155.585938"/><path d="M 144.863281 160.929688 C 144.863281 157.980469 142.46875 155.585938 139.519531 155.585938 L 128.828125 155.585938 C 125.878906 155.585938 123.484375 157.980469 123.484375 160.929688 C 123.484375 163.878906 125.878906 166.269531 128.828125 166.269531 L 139.519531 166.269531 C 142.46875 166.269531 144.863281 163.878906 144.863281 160.929688 Z M 144.863281 160.929688"/><path d="M 221.636719 132.273438 C 223.054688 132.273438 224.414062 131.710938 225.414062 130.707031 L 232.976562 123.152344 C 233.976562 122.148438 234.539062 120.789062 234.539062 119.375 C 234.539062 117.957031 233.976562 116.597656 232.976562 115.59375 C 231.96875 114.59375 230.613281 114.03125 229.195312 114.03125 C 227.777344 114.03125 226.417969 114.59375 225.414062 115.59375 L 217.855469 123.152344 C 216.328125 124.679688 215.871094 126.976562 216.699219 128.972656 C 217.527344 130.972656 219.476562 132.273438 221.636719 132.273438 Z M 221.636719 132.273438"/><path d="M 149.828125 191.148438 L 142.269531 198.703125 C 140.183594 200.792969 140.183594 204.175781 142.269531 206.261719 C 144.355469 208.347656 147.742188 208.347656 149.828125 206.261719 L 157.386719 198.703125 C 159.476562 196.617188 159.476562 193.238281 157.386719 191.148438 C 155.300781 189.0625 151.917969 189.0625 149.828125 191.148438 Z M 149.828125 191.148438"/><path d="M 149.828125 130.707031 C 151.917969 132.792969 155.300781 132.792969 157.386719 130.707031 C 159.476562 128.621094 159.476562 125.238281 157.386719 123.152344 L 149.828125 115.59375 C 147.742188 113.511719 144.355469 113.511719 142.269531 115.59375 C 140.183594 117.679688 140.183594 121.066406 142.269531 123.152344 Z M 149.828125 130.707031"/><path d="M 225.414062 191.148438 C 223.328125 189.0625 219.945312 189.0625 217.855469 191.148438 C 215.769531 193.238281 215.769531 196.617188 217.855469 198.703125 L 225.414062 206.261719 C 226.417969 207.265625 227.777344 207.824219 229.195312 207.824219 C 230.613281 207.824219 231.96875 207.265625 232.976562 206.261719 C 233.976562 205.257812 234.539062 203.902344 234.539062 202.480469 C 234.539062 201.066406 233.976562 199.707031 232.976562 198.703125 Z M 225.414062 191.148438"/></svg>