<svg xmlns="http://www.w3.org/2000/svg" width="110" viewBox="0 0 375 375" height="110" version="1.0"><defs><clipPath id="a"><path d="M 7 218 L 359 218 L 359 311.238281 L 7 311.238281 Z M 7 218"/></clipPath></defs><path fill="#FFF" d="M-37.5 -37.5H412.5V412.5H-37.5z"/><path fill="#FFF" d="M-37.5 -37.5H412.5V412.5H-37.5z"/><path fill="#A9D8D3" d="M 359.152344 307.65625 L 21.054688 307.65625 C 11.25 307.65625 5.320312 296.824219 10.582031 288.5625 L 55.074219 218.785156 C 56.128906 217.132812 57.949219 216.132812 59.90625 216.132812 L 320.285156 216.132812 C 322.242188 216.132812 324.0625 217.132812 325.117188 218.785156 L 369.605469 288.5625 C 374.898438 296.824219 368.953125 307.65625 359.152344 307.65625 Z M 359.152344 307.65625"/><path fill="#DBD2EA" d="M 369.523438 288.410156 C 367.371094 291.714844 363.675781 294.046875 359.152344 294.046875 L 21.054688 294.046875 C 16.511719 294.046875 12.832031 291.714844 10.679688 288.410156 L 10.582031 288.5625 C 5.304688 296.824219 11.25 307.65625 21.054688 307.65625 L 359.152344 307.65625 C 368.953125 307.65625 374.882812 296.824219 369.621094 288.5625 Z M 369.523438 288.410156"/><path fill="#A9D8D3" d="M 315.464844 220.800781 L 64.851562 220.800781 C 55.835938 220.800781 48.464844 213.425781 48.464844 204.414062 L 48.464844 64.609375 C 48.464844 55.597656 55.835938 48.226562 64.851562 48.226562 C 64.851562 48.226562 315.171875 48.226562 315.464844 48.226562 C 328.933594 48.226562 331.28125 59.515625 331.03125 70.054688 C 330.671875 85.523438 330.988281 101.035156 330.976562 116.503906 C 330.976562 136.71875 330.933594 156.925781 330.90625 177.144531 C 330.894531 190.945312 337.167969 220.800781 315.464844 220.800781 Z M 315.464844 220.800781"/><path fill="#FCE9F3" d="M 295.914062 207.34375 L 84.375 207.34375 C 76.765625 207.34375 70.542969 201.125 70.542969 193.515625 L 70.542969 75.511719 C 70.542969 67.902344 76.765625 61.679688 84.375 61.679688 C 84.375 61.679688 295.664062 61.679688 295.914062 61.679688 C 307.285156 61.679688 309.273438 71.207031 309.0625 80.109375 C 308.757812 93.160156 309.035156 106.253906 309.023438 119.320312 C 309.023438 136.386719 308.980469 153.4375 308.964844 170.503906 C 308.9375 182.140625 314.242188 207.34375 295.914062 207.34375 Z M 295.914062 207.34375"/><path d="M 104.1875 223.617188 C 92.09375 223.617188 79.984375 223.550781 67.90625 223.382812 C 45.589844 223.0625 45.894531 201.289062 46.117188 185.378906 C 46.132812 184.058594 46.160156 182.765625 46.160156 181.53125 C 46.199219 171.128906 46.644531 160.578125 47.074219 150.371094 C 47.449219 141.34375 47.839844 132.011719 47.964844 122.835938 C 48.007812 119.820312 48.019531 116.601562 47.851562 113.390625 C 47.851562 106.339844 47.5625 98.921875 47.269531 91.757812 C 46.976562 84.566406 46.6875 77.121094 46.6875 70.082031 C 46.6875 57.640625 55.574219 47.726562 67.808594 46.503906 C 85.71875 45.78125 99.996094 46.015625 115.089844 46.253906 C 125.03125 46.421875 135.308594 46.574219 147.597656 46.515625 C 147.597656 46.515625 147.597656 46.515625 147.609375 46.515625 C 148.375 46.515625 149 47.128906 149 47.890625 C 149 48.65625 148.386719 49.28125 147.625 49.292969 C 135.308594 49.363281 125.003906 49.195312 115.0625 49.03125 C 99.996094 48.792969 85.777344 48.558594 68.015625 49.265625 C 57.144531 50.363281 49.476562 58.917969 49.476562 70.082031 C 49.476562 77.066406 49.769531 84.480469 50.0625 91.648438 C 50.351562 98.839844 50.644531 106.28125 50.644531 113.324219 C 50.8125 116.542969 50.796875 119.808594 50.753906 122.875 C 50.644531 132.097656 50.253906 141.457031 49.867188 150.496094 C 49.4375 160.675781 49.003906 171.199219 48.949219 181.542969 C 48.949219 182.792969 48.921875 184.085938 48.910156 185.417969 C 48.6875 200.972656 48.421875 220.328125 67.960938 220.605469 C 109.507812 221.1875 151.441406 220.59375 192.003906 220.023438 C 232.398438 219.453125 274.167969 218.855469 315.507812 219.425781 C 316.269531 219.4375 316.882812 220.0625 316.882812 220.828125 C 316.882812 221.589844 316.242188 222.214844 315.480469 222.203125 C 274.195312 221.632812 232.441406 222.214844 192.058594 222.800781 C 163.234375 223.1875 133.738281 223.605469 104.1875 223.617188 Z M 104.1875 223.617188"/><path d="M 113.4375 171.03125 C 113.160156 171.03125 112.894531 170.949219 112.644531 170.78125 C 112.007812 170.351562 111.855469 169.476562 112.285156 168.851562 L 164.621094 92.6875 C 165.050781 92.050781 165.925781 91.898438 166.550781 92.328125 C 167.191406 92.757812 167.34375 93.632812 166.914062 94.257812 L 114.574219 170.421875 C 114.324219 170.824219 113.882812 171.03125 113.4375 171.03125 Z M 113.4375 171.03125"/><path d="M 178.605469 154.355469 C 178.339844 154.355469 178.0625 154.273438 177.828125 154.121094 C 177.1875 153.6875 177.035156 152.828125 177.464844 152.191406 C 190.367188 133.347656 202.433594 113.640625 213.359375 93.589844 C 213.722656 92.925781 214.570312 92.675781 215.25 93.035156 C 215.929688 93.394531 216.167969 94.242188 215.804688 94.921875 C 204.835938 115.042969 192.699219 134.847656 179.757812 153.757812 C 179.480469 154.148438 179.046875 154.355469 178.605469 154.355469 Z M 178.605469 154.355469"/><path d="M 221.25 172.308594 C 221.054688 172.308594 220.847656 172.269531 220.652344 172.171875 C 219.957031 171.839844 219.664062 171.019531 219.984375 170.324219 C 230.914062 147.191406 242.828125 124.167969 255.40625 101.894531 C 255.78125 101.226562 256.628906 100.992188 257.296875 101.367188 C 257.964844 101.742188 258.199219 102.589844 257.824219 103.253906 C 245.269531 125.472656 233.386719 148.425781 222.484375 171.503906 C 222.261719 172.019531 221.761719 172.308594 221.25 172.308594 Z M 221.25 172.308594"/><path d="M 311.578125 49.613281 C 311.5625 49.613281 311.5625 49.613281 311.550781 49.613281 C 282.390625 49.140625 258.324219 49.265625 232.84375 49.390625 C 214.167969 49.488281 194.835938 49.585938 171.84375 49.460938 C 171.078125 49.460938 170.453125 48.835938 170.453125 48.074219 C 170.453125 47.308594 171.078125 46.683594 171.84375 46.683594 C 194.824219 46.796875 214.140625 46.710938 232.816406 46.613281 C 258.308594 46.488281 282.390625 46.363281 311.578125 46.835938 C 312.339844 46.851562 312.953125 47.476562 312.9375 48.253906 C 312.953125 49.003906 312.328125 49.613281 311.578125 49.613281 Z M 311.578125 49.613281"/><path d="M 151.164062 210.46875 C 128.421875 210.46875 105.535156 209.832031 82.902344 207.582031 C 79 207.191406 74.945312 206.582031 72.125 203.804688 C 68.460938 200.207031 68.472656 194.792969 68.808594 189.542969 C 71.125 152.132812 69.722656 114.015625 68.363281 77.148438 C 68.125 70.816406 71.417969 65.957031 77.890625 63.109375 C 83.804688 60.488281 90.484375 60.542969 96.371094 60.582031 L 128.046875 60.804688 C 128.808594 60.804688 129.433594 61.445312 129.417969 62.207031 C 129.40625 62.972656 128.796875 63.582031 128.015625 63.582031 L 96.34375 63.359375 C 90.746094 63.320312 84.386719 63.277344 79.011719 65.652344 C 73.597656 68.039062 70.960938 71.886719 71.140625 77.050781 C 72.5 113.976562 73.902344 152.160156 71.570312 189.710938 C 71.277344 194.304688 71.238281 199.039062 74.070312 201.816406 C 76.25 203.957031 79.625 204.457031 83.179688 204.804688 C 121.019531 208.554688 159.707031 207.816406 197.113281 207.09375 L 220.136719 206.648438 C 222.457031 206.609375 228.21875 206.707031 235.507812 206.832031 C 255.742188 207.191406 289.609375 207.773438 298.246094 206.09375 C 298.996094 205.941406 299.734375 206.441406 299.871094 207.191406 C 300.011719 207.941406 299.523438 208.675781 298.773438 208.816406 C 289.84375 210.550781 255.796875 209.957031 235.453125 209.609375 C 228.191406 209.484375 222.457031 209.371094 220.179688 209.425781 L 197.15625 209.871094 C 181.992188 210.164062 166.621094 210.46875 151.164062 210.46875 Z M 151.164062 210.46875"/><g clip-path="url(#a)"><path d="M 88.664062 311.253906 C 60.878906 311.253906 35.550781 311.183594 24.582031 310.949219 C 14.386719 310.726562 8.292969 305.726562 7.832031 297.242188 C 7.515625 291.1875 11.222656 285.996094 14.484375 281.425781 C 15.402344 280.148438 16.261719 278.941406 17.027344 277.746094 L 54.574219 218.828125 C 54.992188 218.175781 55.851562 217.996094 56.492188 218.398438 C 57.144531 218.816406 57.324219 219.675781 56.921875 220.3125 L 19.359375 279.21875 C 18.554688 280.480469 17.679688 281.71875 16.734375 283.023438 C 13.582031 287.4375 10.320312 291.992188 10.597656 297.074219 C 11.097656 306.460938 19.59375 308.046875 24.621094 308.15625 C 51.699219 308.738281 166.46875 308.335938 189.183594 308.253906 C 219.386719 308.144531 252.382812 307.933594 290.039062 307.628906 C 299.800781 307.546875 309.5625 307.460938 319.324219 307.378906 C 330.144531 307.28125 340.945312 307.183594 351.761719 307.101562 C 352.304688 307.101562 352.847656 307.074219 353.386719 307.058594 C 354.597656 307.019531 355.847656 306.976562 357.082031 307.085938 C 357.84375 307.15625 358.414062 307.835938 358.332031 308.601562 C 358.261719 309.363281 357.59375 309.933594 356.816406 309.851562 C 355.761719 309.753906 354.597656 309.796875 353.484375 309.835938 C 352.917969 309.863281 352.332031 309.878906 351.777344 309.878906 C 340.960938 309.960938 330.15625 310.058594 319.339844 310.15625 C 309.578125 310.238281 299.816406 310.335938 290.054688 310.40625 C 252.382812 310.710938 219.386719 310.90625 189.1875 311.03125 C 175.675781 311.101562 129.515625 311.253906 88.664062 311.253906 Z M 88.664062 311.253906"/></g><path d="M 312.632812 295.839844 L 23.121094 295.839844 C 22.359375 295.839844 21.734375 295.214844 21.734375 294.453125 C 21.734375 293.6875 22.359375 293.0625 23.121094 293.0625 L 312.632812 293.0625 C 313.394531 293.0625 314.019531 293.6875 314.019531 294.453125 C 314.019531 295.214844 313.394531 295.839844 312.632812 295.839844 Z M 312.632812 295.839844"/><path fill="#DBD2EA" d="M 341.515625 281.621094 L 43.589844 281.621094 L 77.582031 229.160156 L 307.507812 229.160156 Z M 341.515625 281.621094"/><path d="M 51.492188 271.414062 C 50.796875 271.414062 50.199219 270.902344 50.117188 270.191406 C 50.019531 269.429688 50.5625 268.734375 51.324219 268.636719 C 51.964844 268.554688 52.601562 268.484375 53.253906 268.414062 C 53.90625 268.347656 54.558594 268.261719 55.210938 268.191406 C 55.269531 268.179688 55.324219 268.179688 55.378906 268.179688 L 334.390625 268.179688 C 335.15625 268.179688 335.78125 268.804688 335.78125 269.566406 C 335.78125 270.332031 335.15625 270.957031 334.390625 270.957031 L 55.460938 270.957031 C 54.835938 271.039062 54.199219 271.109375 53.574219 271.179688 C 52.933594 271.246094 52.3125 271.316406 51.671875 271.402344 C 51.601562 271.414062 51.546875 271.414062 51.492188 271.414062 Z M 51.492188 271.414062"/><path d="M 58.613281 258.679688 C 57.921875 258.679688 57.324219 258.167969 57.238281 257.460938 C 57.144531 256.695312 57.683594 256 58.449219 255.902344 C 59.101562 255.820312 59.753906 255.75 60.40625 255.683594 C 61.046875 255.613281 61.683594 255.527344 62.335938 255.460938 C 62.390625 255.460938 62.449219 255.445312 62.503906 255.445312 L 325.753906 255.445312 C 326.519531 255.445312 327.144531 256.070312 327.144531 256.835938 C 327.144531 257.597656 326.519531 258.222656 325.753906 258.222656 L 62.585938 258.222656 C 61.960938 258.292969 61.335938 258.375 60.726562 258.445312 C 60.085938 258.515625 59.449219 258.597656 58.796875 258.667969 C 58.726562 258.679688 58.671875 258.679688 58.613281 258.679688 Z M 58.613281 258.679688"/><path d="M 64.613281 245.378906 C 63.917969 245.378906 63.320312 244.863281 63.238281 244.15625 C 63.140625 243.394531 63.683594 242.699219 64.445312 242.601562 C 65.101562 242.519531 65.753906 242.449219 66.40625 242.378906 C 67.042969 242.308594 67.683594 242.226562 68.335938 242.15625 C 68.390625 242.15625 68.445312 242.144531 68.5 242.144531 L 317.132812 242.144531 C 317.894531 242.144531 318.519531 242.769531 318.519531 243.53125 C 318.519531 244.296875 317.894531 244.921875 317.132812 244.921875 L 68.585938 244.921875 C 67.960938 244.988281 67.335938 245.074219 66.722656 245.140625 C 66.085938 245.210938 65.433594 245.296875 64.792969 245.363281 C 64.726562 245.378906 64.667969 245.378906 64.613281 245.378906 Z M 64.613281 245.378906"/><path d="M 64.613281 283.007812 C 64.378906 283.007812 64.140625 282.953125 63.917969 282.816406 C 63.253906 282.425781 63.03125 281.578125 63.417969 280.914062 L 93.816406 228.839844 C 94.203125 228.171875 95.050781 227.953125 95.71875 228.339844 C 96.386719 228.730469 96.605469 229.574219 96.21875 230.242188 L 65.820312 282.316406 C 65.558594 282.757812 65.085938 283.007812 64.613281 283.007812 Z M 64.613281 283.007812"/><path d="M 96.566406 283.007812 C 96.371094 283.007812 96.175781 282.96875 95.996094 282.882812 C 95.300781 282.566406 94.984375 281.746094 95.300781 281.050781 L 118.839844 228.589844 C 119.15625 227.894531 119.976562 227.578125 120.671875 227.894531 C 121.367188 228.214844 121.683594 229.035156 121.367188 229.730469 L 97.828125 282.191406 C 97.605469 282.703125 97.09375 283.007812 96.566406 283.007812 Z M 96.566406 283.007812"/><path d="M 136.308594 271.414062 C 136.210938 271.414062 136.097656 271.402344 136 271.386719 C 135.253906 271.21875 134.78125 270.46875 134.945312 269.734375 L 144.125 228.796875 C 144.292969 228.046875 145.042969 227.578125 145.777344 227.742188 C 146.527344 227.910156 147 228.660156 146.832031 229.394531 L 137.65625 270.332031 C 137.515625 270.984375 136.945312 271.414062 136.308594 271.414062 Z M 136.308594 271.414062"/><path d="M 278.875 283.050781 C 278.402344 283.050781 277.929688 282.800781 277.679688 282.355469 L 247.285156 230.285156 C 246.894531 229.617188 247.117188 228.769531 247.785156 228.382812 C 248.453125 227.992188 249.296875 228.214844 249.6875 228.882812 L 280.082031 280.953125 C 280.472656 281.621094 280.25 282.46875 279.582031 282.855469 C 279.347656 282.980469 279.113281 283.050781 278.875 283.050781 Z M 278.875 283.050781"/><path d="M 302.621094 271.414062 C 302.148438 271.414062 301.675781 271.164062 301.425781 270.71875 L 277.679688 230.046875 C 277.292969 229.382812 277.515625 228.535156 278.179688 228.144531 C 278.847656 227.757812 279.695312 227.980469 280.082031 228.644531 L 303.828125 269.316406 C 304.21875 269.984375 303.996094 270.832031 303.328125 271.21875 C 303.09375 271.359375 302.855469 271.414062 302.621094 271.414062 Z M 302.621094 271.414062"/><path d="M 246.921875 283.050781 C 246.394531 283.050781 245.882812 282.746094 245.660156 282.230469 L 222.125 229.769531 C 221.804688 229.078125 222.125 228.242188 222.816406 227.9375 C 223.511719 227.617188 224.34375 227.9375 224.652344 228.632812 L 248.1875 281.09375 C 248.507812 281.789062 248.1875 282.621094 247.492188 282.925781 C 247.3125 283.007812 247.117188 283.050781 246.921875 283.050781 Z M 246.921875 283.050781"/><path d="M 207.183594 271.457031 C 206.542969 271.457031 205.972656 271.011719 205.835938 270.375 L 196.65625 229.4375 C 196.488281 228.6875 196.960938 227.953125 197.710938 227.785156 C 198.449219 227.617188 199.199219 228.089844 199.363281 228.839844 L 208.542969 269.777344 C 208.710938 270.527344 208.238281 271.261719 207.488281 271.429688 C 207.390625 271.441406 207.277344 271.457031 207.183594 271.457031 Z M 207.183594 271.457031"/><path d="M 171.855469 271.414062 C 171.84375 271.414062 171.84375 271.414062 171.828125 271.414062 C 171.0625 271.402344 170.453125 270.777344 170.453125 270.011719 L 171.0625 229.078125 C 171.078125 228.3125 171.6875 227.703125 172.453125 227.703125 C 172.464844 227.703125 172.464844 227.703125 172.480469 227.703125 C 173.246094 227.714844 173.855469 228.339844 173.855469 229.105469 L 173.246094 270.039062 C 173.230469 270.804688 172.621094 271.414062 171.855469 271.414062 Z M 171.855469 271.414062"/><path d="M 331.738281 144.800781 C 330.976562 144.800781 330.351562 144.175781 330.351562 143.414062 L 330.351562 82.425781 C 330.351562 81.664062 330.976562 81.039062 331.738281 81.039062 C 332.503906 81.039062 333.128906 81.664062 333.128906 82.425781 L 333.128906 143.414062 C 333.128906 144.175781 332.503906 144.800781 331.738281 144.800781 Z M 331.738281 144.800781"/><path d="M 331.738281 182.070312 C 330.976562 182.070312 330.351562 181.449219 330.351562 180.683594 L 330.351562 162.671875 C 330.351562 161.910156 330.976562 161.285156 331.738281 161.285156 C 332.503906 161.285156 333.128906 161.910156 333.128906 162.671875 L 333.128906 180.683594 C 333.128906 181.449219 332.503906 182.070312 331.738281 182.070312 Z M 331.738281 182.070312"/></svg>