<svg xmlns="http://www.w3.org/2000/svg" width="110" viewBox="0 0 375 375" height="110" version="1.0"><defs><clipPath id="a"><path d="M 27.089844 54.308594 L 347.925781 54.308594 L 347.925781 336.738281 L 27.089844 336.738281 Z M 27.089844 54.308594"/></clipPath></defs><path fill="#FFF" d="M-37.5 -37.5H412.5V412.5H-37.5z"/><path fill="#FFF" d="M-37.5 -37.5H412.5V412.5H-37.5z"/><g clip-path="url(#a)"><path fill="#040606" d="M 316.09375 326.804688 C 299.707031 332.085938 281.953125 324.523438 274.402344 309.050781 L 264.914062 289.4375 C 254.511719 268.03125 232.851562 254.386719 209.058594 254.269531 L 166.023438 254.269531 C 142.230469 254.386719 120.570312 268.03125 110.167969 289.4375 L 100.679688 309.050781 C 92.300781 326.148438 71.695312 333.199219 54.625 324.835938 C 39.292969 317.300781 31.800781 299.628906 37.015625 283.332031 C 43.171875 264.492188 46.304688 244.824219 46.304688 225.011719 L 46.304688 188.644531 C 46.363281 164.039062 66.253906 144.140625 90.789062 144.113281 L 284.320312 144.113281 C 308.882812 144.140625 328.777344 164.039062 328.832031 188.644531 L 328.832031 225.011719 C 328.804688 244.824219 331.941406 264.492188 338.066406 283.332031 C 343.9375 301.398438 334.105469 320.839844 316.09375 326.804688 Z M 92.613281 127.273438 L 116.550781 127.273438 L 116.550781 135.777344 L 92.613281 135.777344 Z M 258.472656 127.273438 L 282.410156 127.273438 L 282.410156 135.777344 L 258.472656 135.777344 Z M 345.988281 280.703125 C 340.117188 262.722656 337.125 243.9375 337.097656 225.011719 L 337.097656 188.644531 C 337.039062 161.953125 317.175781 139.488281 290.730469 136.207031 L 290.730469 123.132812 C 290.730469 120.847656 288.878906 118.964844 286.570312 118.964844 L 254.367188 118.964844 C 252.058594 118.964844 250.207031 120.847656 250.207031 123.132812 L 250.207031 135.777344 L 191.703125 135.777344 L 191.703125 90.019531 C 191.703125 83.082031 197.316406 77.460938 204.242188 77.460938 L 217.949219 77.460938 C 224.871094 77.460938 230.488281 83.082031 230.488281 90.019531 C 230.515625 101.523438 239.835938 110.859375 251.320312 110.886719 L 254.367188 110.886719 C 265.824219 110.828125 275.113281 101.523438 275.144531 90.019531 L 275.144531 58.476562 C 275.144531 56.164062 273.289062 54.28125 270.984375 54.28125 C 268.675781 54.28125 266.820312 56.164062 266.820312 58.476562 L 266.820312 90.019531 C 266.820312 96.957031 261.207031 102.582031 254.28125 102.582031 L 251.203125 102.582031 C 244.28125 102.582031 238.664062 96.957031 238.664062 90.019531 C 238.636719 78.515625 229.320312 69.210938 217.835938 69.183594 L 204.183594 69.183594 C 192.699219 69.210938 183.410156 78.515625 183.378906 90.019531 L 183.378906 135.777344 L 124.875 135.777344 L 124.875 123.105469 C 124.875 120.792969 122.992188 118.9375 120.714844 118.9375 L 88.453125 118.9375 C 86.144531 118.9375 84.292969 120.792969 84.292969 123.105469 L 84.292969 136.179688 C 57.847656 139.433594 37.957031 161.898438 37.925781 188.589844 L 37.925781 224.984375 C 37.925781 243.878906 34.90625 262.691406 29.035156 280.648438 C 21.738281 303.113281 33.9375 327.234375 56.335938 334.628906 C 60.582031 336.027344 65.058594 336.738281 69.53125 336.738281 C 85.917969 336.738281 100.878906 327.375 108.058594 312.617188 L 117.550781 293.007812 C 126.640625 274.566406 145.390625 262.890625 165.910156 262.863281 L 208.972656 262.863281 C 229.488281 262.890625 248.242188 274.566406 257.332031 293.007812 L 266.820312 312.617188 C 277.222656 333.855469 302.84375 342.621094 324.015625 332.199219 C 343.082031 322.835938 352.371094 300.886719 345.875 280.648438 L 345.988281 280.703125"/></g><path fill="#040606" d="M 104.042969 167.578125 C 107.40625 167.578125 110.113281 170.289062 110.113281 173.660156 C 110.113281 177.027344 107.40625 179.738281 104.042969 179.738281 C 100.707031 179.738281 97.972656 177.027344 97.972656 173.660156 C 98 170.320312 100.707031 167.605469 104.042969 167.578125 Z M 104.042969 188.074219 C 111.992188 188.074219 118.433594 181.621094 118.433594 173.660156 C 118.433594 165.695312 111.992188 159.242188 104.042969 159.242188 C 96.089844 159.242188 89.652344 165.695312 89.652344 173.660156 C 89.652344 181.621094 96.089844 188.074219 104.042969 188.074219"/><path fill="#040606" d="M 104.042969 226.78125 C 100.707031 226.753906 98 224.011719 98.027344 220.644531 C 98.058594 217.277344 100.792969 214.59375 104.15625 214.621094 C 107.492188 214.648438 110.167969 217.363281 110.167969 220.703125 C 110.140625 224.070312 107.40625 226.78125 104.042969 226.78125 Z M 104.042969 206.285156 C 96.089844 206.285156 89.652344 212.738281 89.652344 220.703125 C 89.652344 228.664062 96.089844 235.117188 104.042969 235.117188 C 111.992188 235.117188 118.433594 228.664062 118.433594 220.703125 C 118.433594 212.738281 111.992188 206.285156 104.042969 206.285156"/><path fill="#040606" d="M 127.324219 203.261719 C 123.960938 203.261719 121.253906 200.546875 121.253906 197.179688 C 121.253906 193.8125 123.960938 191.101562 127.324219 191.101562 C 130.6875 191.101562 133.394531 193.8125 133.394531 197.179688 C 133.367188 200.519531 130.660156 203.230469 127.324219 203.261719 Z M 127.324219 182.765625 C 119.375 182.765625 112.933594 189.214844 112.933594 197.179688 C 112.933594 205.144531 119.375 211.59375 127.324219 211.59375 C 135.277344 211.59375 141.714844 205.144531 141.714844 197.179688 C 141.714844 189.214844 135.277344 182.765625 127.324219 182.765625"/><path fill="#040606" d="M 80.558594 203.261719 C 77.226562 203.261719 74.488281 200.546875 74.488281 197.179688 C 74.488281 193.8125 77.226562 191.101562 80.558594 191.101562 C 83.921875 191.101562 86.628906 193.8125 86.628906 197.179688 C 86.601562 200.519531 83.921875 203.230469 80.558594 203.261719 Z M 94.953125 197.179688 C 94.953125 189.214844 88.511719 182.765625 80.558594 182.765625 C 72.609375 182.765625 66.167969 189.214844 66.167969 197.179688 C 66.167969 205.144531 72.609375 211.59375 80.558594 211.59375 C 88.511719 211.59375 94.953125 205.144531 94.953125 197.179688"/><path fill="#040606" d="M 275.285156 226.78125 L 266.765625 226.78125 L 266.765625 220.703125 C 267.019531 218.359375 269.128906 216.648438 271.46875 216.90625 C 273.460938 217.132812 275.027344 218.703125 275.230469 220.703125 Z M 271.039062 208.339844 C 264.085938 208.339844 258.472656 213.964844 258.472656 220.902344 L 258.472656 230.949219 C 258.472656 233.261719 260.351562 235.117188 262.660156 235.117188 L 279.445312 235.117188 C 281.753906 235.117188 283.605469 233.261719 283.605469 230.949219 L 283.605469 220.703125 C 283.523438 213.820312 277.90625 208.3125 271.039062 208.339844"/><path fill="#040606" d="M 266.765625 167.578125 L 275.230469 167.578125 L 275.230469 173.457031 C 275 175.800781 272.890625 177.484375 270.527344 177.253906 C 268.558594 177.027344 266.992188 175.457031 266.765625 173.457031 Z M 271.039062 186.019531 C 277.964844 186.019531 283.578125 180.394531 283.578125 173.457031 L 283.578125 163.410156 C 283.578125 161.097656 281.699219 159.242188 279.417969 159.242188 L 262.804688 159.242188 C 260.496094 159.242188 258.644531 161.097656 258.644531 163.410156 L 258.644531 173.457031 C 258.671875 180.339844 264.171875 185.90625 271.039062 186.019531"/><path fill="#040606" d="M 247.300781 201.460938 L 241.429688 201.460938 L 241.429688 192.898438 L 247.300781 192.898438 C 249.636719 192.640625 251.746094 194.355469 252.003906 196.695312 C 252.257812 199.035156 250.550781 201.148438 248.210938 201.40625 C 247.898438 201.433594 247.613281 201.433594 247.300781 201.40625 Z M 247.300781 184.621094 L 237.269531 184.621094 C 234.960938 184.621094 233.109375 186.476562 233.109375 188.789062 L 233.109375 205.628906 C 233.109375 207.914062 234.960938 209.796875 237.269531 209.796875 L 247.300781 209.796875 C 254.226562 209.796875 259.839844 204.175781 259.839844 197.238281 C 259.839844 190.300781 254.226562 184.675781 247.300781 184.675781 L 247.300781 184.621094"/><path fill="#040606" d="M 300.59375 201.460938 L 294.722656 201.460938 C 292.355469 201.71875 290.277344 200.007812 290.019531 197.664062 C 289.761719 195.324219 291.445312 193.210938 293.78125 192.957031 C 294.09375 192.925781 294.40625 192.925781 294.722656 192.957031 L 300.59375 192.957031 Z M 304.753906 184.621094 L 294.722656 184.621094 C 287.769531 184.621094 282.152344 190.242188 282.152344 197.179688 C 282.152344 204.117188 287.769531 209.738281 294.722656 209.738281 L 304.753906 209.738281 C 307.03125 209.738281 308.914062 207.886719 308.914062 205.574219 L 308.914062 188.789062 C 308.914062 186.476562 307.03125 184.621094 304.753906 184.621094"/><path fill="#040606" d="M 207.917969 200.605469 L 191.703125 200.605469 L 191.703125 193.8125 L 207.917969 193.8125 Z M 167.222656 193.867188 L 183.4375 193.867188 L 183.4375 200.605469 L 167.164062 200.605469 Z M 212.078125 185.535156 L 163.003906 185.535156 C 160.695312 185.535156 158.84375 187.390625 158.84375 189.703125 L 158.84375 204.773438 C 158.84375 207.058594 160.695312 208.941406 163.003906 208.941406 L 212.019531 208.941406 C 214.328125 208.941406 216.179688 207.058594 216.179688 204.773438 L 216.179688 189.703125 C 216.179688 187.417969 214.355469 185.5625 212.078125 185.535156"/></svg>