<svg xmlns="http://www.w3.org/2000/svg" width="110" viewBox="0 0 375 375" height="110" version="1.0"><defs><clipPath id="a"><path d="M 257 23.058594 L 318 23.058594 L 318 112 L 257 112 Z M 257 23.058594"/></clipPath><clipPath id="b"><path d="M 12 23.058594 L 363.292969 23.058594 L 363.292969 198 L 12 198 Z M 12 23.058594"/></clipPath></defs><path fill="#FFF" d="M-37.5 -37.5H412.5V412.5H-37.5z"/><path fill="#FFF" d="M-37.5 -37.5H412.5V412.5H-37.5z"/><path fill="#EBEDF0" d="M 187.703125 84.628906 L 301.957031 181.582031 L 301.957031 336.140625 L 73.449219 336.140625 L 73.449219 181.804688 L 187.703125 84.628906"/><path fill="#8FF3AD" d="M 279.105469 318.992188 L 96.300781 318.992188 L 96.300781 287.550781 C 98.824219 264.6875 110.582031 253.253906 110.582031 253.253906 C 113.148438 250.867188 117.835938 247.027344 125.667969 245.597656 C 128.925781 248.789062 133.144531 250.621094 137.652344 250.398438 C 141.265625 250.21875 144.523438 248.746094 147.089844 246.402344 C 150.101562 247.359375 152.871094 248.746094 155.257812 250.332031 C 155.257812 250.332031 164.160156 262.296875 172.171875 263.996094 C 174.558594 269.488281 179.3125 273.261719 184.847656 273.261719 C 190.382812 273.261719 195.179688 269.488281 197.523438 263.949219 C 204.105469 260.46875 213.921875 249.480469 213.921875 249.480469 C 217.582031 246 222.3125 242.628906 228.316406 240.683594 C 230.882812 243.027344 234.140625 244.457031 237.757812 244.679688 C 242.265625 244.90625 246.480469 243.074219 249.738281 239.878906 C 264.421875 242.558594 267.679688 250.398438 267.679688 250.398438 C 267.679688 250.398438 279.105469 263.257812 279.105469 280.074219 L 279.105469 318.992188"/><path fill="#FFF" d="M 199.128906 256.113281 C 199.128906 246.625 192.722656 238.964844 184.847656 238.964844 C 176.96875 238.964844 170.566406 246.625 170.566406 256.113281 C 170.566406 258.972656 171.125 261.652344 172.171875 263.996094 C 164.160156 262.296875 155.257812 250.332031 155.257812 250.332031 C 152.871094 248.746094 150.101562 247.359375 147.089844 246.402344 C 151.308594 242.558594 153.828125 236.398438 153.359375 229.519531 C 152.625 218.488281 144.34375 209.914062 134.929688 210.382812 C 125.421875 210.898438 118.414062 220.277344 119.21875 231.304688 C 119.621094 237.023438 122.074219 242.113281 125.667969 245.597656 C 117.835938 247.027344 113.148438 250.867188 110.582031 253.253906 C 110.582031 253.253906 98.824219 264.6875 96.300781 287.550781 L 96.300781 181.804688 L 279.105469 181.804688 L 279.105469 280.074219 C 279.105469 263.257812 267.679688 250.398438 267.679688 250.398438 C 267.679688 250.398438 264.421875 242.558594 249.738281 239.878906 C 253.332031 236.398438 255.785156 231.304688 256.1875 225.589844 C 256.945312 214.558594 249.917969 205.183594 240.480469 204.667969 C 231.0625 204.199219 222.78125 212.773438 222.046875 223.804688 C 221.578125 230.679688 224.097656 236.84375 228.316406 240.683594 C 222.3125 242.628906 217.582031 246 213.921875 249.480469 C 213.921875 249.480469 204.105469 260.46875 197.523438 263.949219 C 198.570312 261.605469 199.128906 258.90625 199.128906 256.113281"/><path fill="#8FF3AD" d="M 359.082031 170.371094 L 336.234375 193.234375 L 187.703125 67.480469 L 39.175781 193.234375 L 16.324219 170.371094 L 187.703125 27.46875 L 261.96875 89.386719 L 313.382812 132.257812 L 359.082031 170.371094"/><path fill="#8FF3AD" d="M 313.382812 107.492188 L 313.382812 132.257812 L 261.96875 89.386719 L 261.96875 27.46875 L 313.382812 27.46875 L 313.382812 107.492188"/><path fill="#303E58" d="M 279.105469 323.277344 L 96.300781 323.277344 C 93.933594 323.277344 92.015625 321.359375 92.015625 318.992188 L 92.015625 204.667969 C 92.015625 202.300781 93.933594 200.382812 96.300781 200.382812 C 98.667969 200.382812 100.585938 202.300781 100.585938 204.667969 L 100.585938 314.703125 L 274.820312 314.703125 L 274.820312 186.089844 L 96.300781 186.089844 C 93.933594 186.089844 92.015625 184.171875 92.015625 181.804688 C 92.015625 179.4375 93.933594 177.515625 96.300781 177.515625 L 279.105469 177.515625 C 281.472656 177.515625 283.390625 179.4375 283.390625 181.804688 L 283.390625 318.992188 C 283.390625 321.359375 281.472656 323.277344 279.105469 323.277344"/><g clip-path="url(#a)"><path fill="#303E58" d="M 313.382812 111.78125 C 311.015625 111.78125 309.097656 109.859375 309.097656 107.492188 L 309.097656 31.753906 L 266.253906 31.753906 L 266.253906 61.765625 C 266.253906 64.132812 264.332031 66.050781 261.96875 66.050781 C 259.601562 66.050781 257.683594 64.132812 257.683594 61.765625 L 257.683594 27.46875 C 257.683594 25.101562 259.601562 23.179688 261.96875 23.179688 L 313.382812 23.179688 C 315.746094 23.179688 317.667969 25.101562 317.667969 27.46875 L 317.667969 107.492188 C 317.667969 109.859375 315.746094 111.78125 313.382812 111.78125"/></g><g clip-path="url(#b)"><path fill="#303E58" d="M 187.703125 63.195312 C 188.683594 63.195312 189.667969 63.527344 190.46875 64.199219 L 335.988281 187.40625 L 352.746094 170.660156 L 187.703125 33.050781 L 22.683594 170.660156 L 39.417969 187.40625 L 184.9375 64.199219 C 185.738281 63.527344 186.722656 63.195312 187.703125 63.195312 Z M 336.234375 197.523438 C 335.25 197.523438 334.269531 197.1875 333.464844 196.519531 L 187.703125 73.085938 L 41.941406 196.519531 C 40.246094 197.949219 37.722656 197.835938 36.140625 196.273438 L 13.289062 173.40625 C 12.441406 172.558594 11.996094 171.375 12.039062 170.171875 C 12.105469 168.988281 12.664062 167.847656 13.578125 167.066406 L 184.957031 24.164062 C 186.542969 22.84375 188.863281 22.84375 190.449219 24.164062 L 316.125 128.953125 L 361.828125 167.066406 C 362.765625 167.847656 363.300781 168.988281 363.367188 170.171875 C 363.414062 171.375 362.964844 172.558594 362.117188 173.40625 L 339.265625 196.273438 C 338.441406 197.097656 337.324219 197.523438 336.234375 197.523438"/></g><path fill="#303E58" d="M 313.382812 351.859375 L 62.023438 351.859375 C 59.660156 351.859375 57.738281 349.9375 57.738281 347.570312 L 57.738281 198.953125 C 57.738281 196.585938 59.660156 194.664062 62.023438 194.664062 C 64.390625 194.664062 66.308594 196.585938 66.308594 198.953125 L 66.308594 343.285156 L 309.097656 343.285156 L 309.097656 198.953125 C 309.097656 196.585938 311.015625 194.664062 313.382812 194.664062 C 315.746094 194.664062 317.667969 196.585938 317.667969 198.953125 L 317.667969 347.570312 C 317.667969 349.9375 315.746094 351.859375 313.382812 351.859375"/><path fill="#303E58" d="M 184.847656 243.253906 C 179.335938 243.253906 174.851562 249.035156 174.851562 256.113281 C 174.851562 258.300781 175.273438 260.445312 176.097656 262.277344 C 177.882812 266.40625 181.253906 268.976562 184.847656 268.976562 C 188.484375 268.976562 191.832031 266.40625 193.59375 262.277344 C 193.59375 262.253906 193.59375 262.230469 193.59375 262.210938 C 194.421875 260.378906 194.84375 258.28125 194.84375 256.113281 C 194.84375 249.035156 190.359375 243.253906 184.847656 243.253906 Z M 184.847656 277.550781 C 177.796875 277.550781 171.4375 273.015625 168.246094 265.714844 C 166.949219 262.8125 166.28125 259.484375 166.28125 256.113281 C 166.28125 244.300781 174.605469 234.679688 184.847656 234.679688 C 195.089844 234.679688 203.414062 244.300781 203.414062 256.113281 C 203.414062 259.441406 202.742188 262.722656 201.449219 265.648438 C 198.347656 272.992188 191.988281 277.550781 184.847656 277.550781"/><path fill="#303E58" d="M 239.742188 208.933594 C 232.867188 208.933594 226.886719 215.609375 226.308594 224.117188 C 225.953125 229.410156 227.78125 234.410156 231.195312 237.492188 C 233.113281 239.234375 235.457031 240.238281 238.023438 240.417969 C 241.148438 240.550781 244.226562 239.277344 246.75 236.820312 C 246.75 236.820312 246.75 236.800781 246.769531 236.800781 C 249.738281 233.917969 251.613281 229.722656 251.925781 225.277344 C 252.238281 220.566406 250.808594 216.054688 248.019531 212.886719 C 246.527344 211.210938 243.960938 209.15625 240.253906 208.957031 C 240.078125 208.933594 239.921875 208.933594 239.742188 208.933594 Z M 238.515625 248.992188 C 238.179688 248.992188 237.867188 248.992188 237.53125 248.96875 C 232.9375 248.679688 228.785156 246.914062 225.4375 243.832031 C 220.105469 239.03125 217.226562 231.417969 217.761719 223.535156 C 218.65625 210.207031 229.097656 199.84375 240.703125 200.382812 C 245.921875 200.671875 250.789062 203.082031 254.425781 207.214844 C 258.730469 212.082031 260.941406 218.871094 260.472656 225.878906 C 260.003906 232.488281 257.257812 238.539062 252.75 242.941406 C 248.757812 246.871094 243.714844 248.992188 238.515625 248.992188"/><path fill="#303E58" d="M 267.679688 254.683594 C 266.007812 254.683594 264.398438 253.703125 263.730469 252.050781 C 263.640625 251.914062 260.828125 246.265625 248.980469 244.101562 C 246.660156 243.675781 245.097656 241.445312 245.523438 239.121094 C 245.96875 236.777344 248.199219 235.214844 250.519531 235.660156 C 267.011719 238.675781 271.207031 247.71875 271.628906 248.746094 C 272.546875 250.933594 271.519531 253.433594 269.332031 254.351562 C 268.796875 254.574219 268.238281 254.683594 267.679688 254.683594"/><path fill="#303E58" d="M 213.921875 253.769531 C 212.785156 253.769531 211.667969 253.324219 210.820312 252.429688 C 209.191406 250.710938 209.257812 248.007812 210.976562 246.378906 C 215.820312 241.757812 221.199219 238.472656 227 236.597656 C 229.253906 235.882812 231.6875 237.113281 232.402344 239.367188 C 233.136719 241.621094 231.886719 244.035156 229.632812 244.769531 C 225.082031 246.246094 220.773438 248.855469 216.871094 252.585938 C 216.042969 253.390625 214.996094 253.769531 213.921875 253.769531"/><path fill="#303E58" d="M 135.640625 214.648438 C 135.464844 214.648438 135.308594 214.648438 135.128906 214.671875 C 131.378906 214.871094 128.8125 216.925781 127.320312 218.644531 C 124.550781 221.792969 123.144531 226.28125 123.480469 230.992188 C 123.792969 235.4375 125.667969 239.636719 128.636719 242.515625 C 128.65625 242.515625 128.65625 242.539062 128.65625 242.539062 C 131.179688 244.992188 134.304688 246.332031 137.449219 246.109375 C 139.925781 246 142.246094 244.992188 144.1875 243.230469 C 147.625 240.125 149.457031 235.125 149.097656 229.808594 C 148.519531 221.324219 142.539062 214.648438 135.640625 214.648438 Z M 136.890625 254.707031 C 131.691406 254.707031 126.671875 252.585938 122.65625 248.65625 C 118.148438 244.257812 115.402344 238.207031 114.933594 231.617188 C 114.421875 224.628906 116.605469 217.84375 120.890625 212.972656 C 124.527344 208.820312 129.4375 206.386719 134.683594 206.097656 C 146.597656 205.425781 156.753906 215.921875 157.644531 229.230469 C 158.179688 237.132812 155.300781 244.75 149.96875 249.570312 C 146.53125 252.699219 142.359375 254.460938 137.875 254.683594 C 137.539062 254.707031 137.203125 254.707031 136.890625 254.707031"/><path fill="#303E58" d="M 110.582031 257.542969 C 109.445312 257.542969 108.285156 257.074219 107.457031 256.179688 C 105.828125 254.460938 105.917969 251.738281 107.660156 250.128906 C 109.511719 248.410156 115.113281 243.164062 124.886719 241.375 C 127.230469 240.976562 129.460938 242.492188 129.886719 244.835938 C 130.308594 247.160156 128.746094 249.394531 126.425781 249.816406 C 119.886719 251 115.914062 254.148438 113.503906 256.382812 C 112.679688 257.164062 111.632812 257.542969 110.582031 257.542969"/><path fill="#303E58" d="M 155.257812 254.617188 C 154.429688 254.617188 153.605469 254.394531 152.890625 253.902344 C 150.683594 252.429688 148.273438 251.289062 145.773438 250.488281 C 143.519531 249.75 142.269531 247.339844 143.007812 245.082031 C 143.71875 242.828125 146.128906 241.601562 148.382812 242.3125 C 151.664062 243.363281 154.765625 244.859375 157.621094 246.78125 C 159.609375 248.097656 160.121094 250.753906 158.828125 252.71875 C 158 253.949219 156.640625 254.617188 155.257812 254.617188"/><path fill="#303E58" d="M 210.554688 306.128906 C 208.1875 306.128906 206.269531 304.210938 206.269531 301.84375 C 206.269531 280.316406 194.820312 277.550781 184.847656 277.550781 C 174.871094 277.550781 163.425781 280.316406 163.425781 301.84375 C 163.425781 304.210938 161.503906 306.128906 159.140625 306.128906 C 156.773438 306.128906 154.855469 304.210938 154.855469 301.84375 C 154.855469 280.339844 165.230469 268.976562 184.847656 268.976562 C 204.460938 268.976562 214.839844 280.339844 214.839844 301.84375 C 214.839844 304.210938 212.917969 306.128906 210.554688 306.128906"/><path fill="#303E58" d="M 240.878906 307.359375 C 233.335938 307.359375 226.441406 302.824219 223.496094 295.703125 L 223.140625 294.71875 C 221.890625 291.707031 221.980469 288.089844 223.496094 284.984375 C 225.015625 281.859375 227.78125 279.515625 231.082031 278.578125 L 240.703125 275.71875 C 241.90625 275.359375 243.066406 274.667969 243.914062 273.820312 L 253.21875 264.507812 C 254.894531 262.835938 257.617188 262.835938 259.289062 264.507812 C 260.964844 266.183594 260.964844 268.90625 259.289062 270.582031 L 249.984375 279.894531 C 248.132812 281.746094 245.765625 283.152344 243.179688 283.933594 L 233.472656 286.792969 C 232.488281 287.082031 231.664062 287.796875 231.195312 288.734375 C 230.773438 289.628906 230.75 290.679688 231.128906 291.617188 L 231.484375 292.621094 C 233.203125 296.75 237.6875 299.320312 242.308594 298.695312 L 248 297.867188 C 248.800781 297.777344 249.605469 297.511719 250.34375 297.152344 L 260.050781 292.285156 C 262.167969 291.238281 264.734375 292.085938 265.804688 294.207031 C 266.855469 296.328125 266.007812 298.894531 263.886719 299.96875 L 254.179688 304.8125 C 252.617188 305.59375 250.878906 306.152344 249.179688 306.375 L 243.492188 307.179688 C 242.621094 307.289062 241.75 307.359375 240.878906 307.359375"/><path fill="#303E58" d="M 133.253906 306.128906 L 126.804688 306.128906 C 122.632812 306.128906 118.550781 304.476562 115.601562 301.597656 L 110.449219 296.574219 C 108.753906 294.898438 108.707031 292.195312 110.382812 290.5 C 112.03125 288.804688 114.734375 288.78125 116.429688 290.433594 L 121.582031 295.457031 C 122.945312 296.796875 124.839844 297.554688 126.804688 297.554688 L 133.253906 297.554688 C 136.199219 297.554688 138.898438 295.882812 140.128906 293.269531 L 141.445312 290.476562 C 141.511719 290.296875 141.667969 289.808594 141.378906 289.273438 C 141.132812 288.824219 140.753906 288.601562 140.285156 288.535156 L 131.425781 287.574219 C 127.496094 287.105469 123.925781 285.296875 121.316406 282.4375 L 112.679688 273.082031 C 111.09375 271.339844 111.183594 268.617188 112.925781 267.011719 C 114.664062 265.425781 117.386719 265.535156 118.996094 267.277344 L 127.609375 276.65625 C 128.859375 277.996094 130.53125 278.84375 132.40625 279.066406 L 141.265625 280.027344 C 144.546875 280.453125 147.359375 282.351562 148.851562 285.117188 C 150.390625 287.796875 150.546875 291.101562 149.230469 294.050781 L 147.871094 296.929688 C 145.238281 302.511719 139.503906 306.128906 133.253906 306.128906"/></svg>