<svg xmlns="http://www.w3.org/2000/svg" width="110" viewBox="0 0 375 375" height="110" version="1.0"><defs><clipPath id="a"><path d="M 90 11 L 293 11 L 293 363.984375 L 90 363.984375 Z M 90 11"/></clipPath></defs><path fill="#FFF" d="M-37.5 -37.5H412.5V412.5H-37.5z"/><path fill="#FFF" d="M-37.5 -37.5H412.5V412.5H-37.5z"/><g clip-path="url(#a)"><path d="M 271.265625 11.078125 L 111.769531 11.078125 C 111.058594 11.074219 110.351562 11.105469 109.644531 11.171875 C 108.9375 11.238281 108.234375 11.339844 107.539062 11.472656 C 106.84375 11.609375 106.152344 11.777344 105.472656 11.980469 C 104.792969 12.183594 104.125 12.417969 103.46875 12.6875 C 102.8125 12.957031 102.167969 13.253906 101.542969 13.585938 C 100.914062 13.917969 100.304688 14.28125 99.710938 14.671875 C 99.121094 15.0625 98.550781 15.484375 98 15.933594 C 97.449219 16.378906 96.921875 16.855469 96.421875 17.351562 C 95.917969 17.851562 95.4375 18.375 94.988281 18.921875 C 94.535156 19.46875 94.113281 20.039062 93.714844 20.625 C 93.320312 21.214844 92.957031 21.820312 92.621094 22.445312 C 92.285156 23.070312 91.980469 23.707031 91.707031 24.363281 C 91.433594 25.015625 91.195312 25.683594 90.988281 26.359375 C 90.78125 27.039062 90.609375 27.726562 90.46875 28.421875 C 90.332031 29.113281 90.226562 29.816406 90.15625 30.519531 C 90.085938 31.226562 90.050781 31.933594 90.050781 32.640625 L 90.050781 342.308594 C 90.050781 343.015625 90.085938 343.71875 90.15625 344.421875 C 90.226562 345.125 90.328125 345.820312 90.46875 346.515625 C 90.605469 347.207031 90.777344 347.890625 90.980469 348.566406 C 91.1875 349.242188 91.425781 349.90625 91.695312 350.558594 C 91.96875 351.210938 92.269531 351.847656 92.601562 352.472656 C 92.9375 353.09375 93.300781 353.699219 93.691406 354.289062 C 94.085938 354.875 94.507812 355.441406 94.957031 355.988281 C 95.40625 356.53125 95.878906 357.054688 96.378906 357.554688 C 96.878906 358.054688 97.402344 358.527344 97.949219 358.976562 C 98.496094 359.421875 99.066406 359.84375 99.652344 360.234375 C 100.242188 360.628906 100.847656 360.992188 101.472656 361.324219 C 102.09375 361.65625 102.734375 361.957031 103.386719 362.230469 C 104.042969 362.5 104.707031 362.738281 105.382812 362.941406 C 106.0625 363.148438 106.746094 363.316406 107.441406 363.457031 C 108.132812 363.59375 108.832031 363.695312 109.539062 363.765625 C 110.242188 363.835938 110.949219 363.871094 111.65625 363.871094 L 271.265625 363.871094 C 271.972656 363.871094 272.679688 363.835938 273.382812 363.765625 C 274.085938 363.695312 274.785156 363.59375 275.480469 363.457031 C 276.171875 363.316406 276.859375 363.148438 277.535156 362.941406 C 278.214844 362.738281 278.878906 362.5 279.53125 362.230469 C 280.1875 361.957031 280.824219 361.65625 281.449219 361.324219 C 282.074219 360.992188 282.679688 360.628906 283.265625 360.234375 C 283.855469 359.84375 284.421875 359.421875 284.96875 358.976562 C 285.515625 358.527344 286.039062 358.054688 286.539062 357.554688 C 287.042969 357.054688 287.515625 356.53125 287.964844 355.988281 C 288.414062 355.441406 288.835938 354.875 289.226562 354.289062 C 289.621094 353.699219 289.984375 353.09375 290.316406 352.472656 C 290.652344 351.847656 290.953125 351.210938 291.222656 350.558594 C 291.496094 349.90625 291.734375 349.242188 291.9375 348.566406 C 292.144531 347.890625 292.316406 347.207031 292.453125 346.515625 C 292.589844 345.820312 292.695312 345.125 292.765625 344.421875 C 292.832031 343.71875 292.867188 343.015625 292.867188 342.308594 L 292.867188 32.640625 C 292.867188 31.933594 292.832031 31.230469 292.765625 30.527344 C 292.695312 29.824219 292.589844 29.125 292.453125 28.433594 C 292.316406 27.742188 292.144531 27.058594 291.9375 26.382812 C 291.734375 25.707031 291.496094 25.042969 291.222656 24.390625 C 290.953125 23.738281 290.652344 23.097656 290.316406 22.476562 C 289.984375 21.855469 289.621094 21.25 289.226562 20.660156 C 288.835938 20.074219 288.414062 19.507812 287.964844 18.960938 C 287.515625 18.417969 287.042969 17.894531 286.539062 17.394531 C 286.039062 16.894531 285.515625 16.421875 284.96875 15.972656 C 284.421875 15.523438 283.855469 15.105469 283.265625 14.710938 C 282.679688 14.320312 282.074219 13.957031 281.449219 13.625 C 280.824219 13.292969 280.1875 12.992188 279.53125 12.71875 C 278.878906 12.449219 278.214844 12.210938 277.535156 12.007812 C 276.859375 11.800781 276.171875 11.632812 275.480469 11.492188 C 274.785156 11.355469 274.085938 11.25 273.382812 11.183594 C 272.679688 11.113281 271.972656 11.078125 271.265625 11.078125 Z M 101.542969 48.355469 L 281.492188 48.355469 L 281.492188 294.941406 L 101.542969 294.941406 Z M 111.65625 22.546875 L 271.265625 22.546875 C 271.929688 22.546875 272.585938 22.613281 273.238281 22.742188 C 273.890625 22.871094 274.519531 23.0625 275.136719 23.316406 C 275.75 23.570312 276.332031 23.878906 276.882812 24.25 C 277.433594 24.617188 277.945312 25.035156 278.414062 25.503906 C 278.886719 25.972656 279.304688 26.484375 279.671875 27.035156 C 280.042969 27.585938 280.351562 28.167969 280.609375 28.777344 C 280.863281 29.390625 281.054688 30.023438 281.183594 30.671875 C 281.3125 31.320312 281.378906 31.976562 281.378906 32.640625 L 281.378906 36.882812 L 101.542969 36.882812 L 101.542969 32.640625 C 101.542969 31.972656 101.609375 31.3125 101.738281 30.65625 C 101.871094 30.003906 102.066406 29.367188 102.324219 28.75 C 102.582031 28.136719 102.898438 27.550781 103.269531 26.996094 C 103.644531 26.445312 104.070312 25.933594 104.546875 25.464844 C 105.019531 24.992188 105.539062 24.574219 106.097656 24.207031 C 106.65625 23.84375 107.246094 23.535156 107.863281 23.28125 C 108.484375 23.03125 109.125 22.847656 109.78125 22.722656 C 110.4375 22.597656 111.101562 22.539062 111.769531 22.546875 Z M 271.265625 352.285156 L 111.769531 352.285156 C 111.105469 352.285156 110.449219 352.222656 109.796875 352.09375 C 109.144531 351.964844 108.511719 351.769531 107.898438 351.519531 C 107.285156 351.265625 106.703125 350.953125 106.152344 350.585938 C 105.601562 350.21875 105.089844 349.796875 104.621094 349.328125 C 104.148438 348.863281 103.730469 348.351562 103.363281 347.800781 C 102.992188 347.25 102.679688 346.667969 102.425781 346.054688 C 102.171875 345.445312 101.980469 344.8125 101.851562 344.164062 C 101.722656 343.511719 101.65625 342.855469 101.65625 342.191406 L 101.65625 306.410156 L 281.492188 306.410156 L 281.492188 342.191406 C 281.492188 342.859375 281.425781 343.523438 281.296875 344.175781 C 281.164062 344.832031 280.96875 345.464844 280.710938 346.082031 C 280.453125 346.699219 280.136719 347.28125 279.765625 347.835938 C 279.390625 348.390625 278.964844 348.902344 278.488281 349.371094 C 278.015625 349.839844 277.496094 350.257812 276.9375 350.625 C 276.378906 350.992188 275.789062 351.300781 275.171875 351.550781 C 274.550781 351.800781 273.910156 351.988281 273.253906 352.113281 C 272.597656 352.234375 271.933594 352.292969 271.265625 352.285156 Z M 271.265625 352.285156"/></g><path d="M 191.515625 309.277344 C 190.847656 309.277344 190.179688 309.308594 189.511719 309.375 C 188.847656 309.441406 188.183594 309.539062 187.527344 309.667969 C 186.871094 309.800781 186.222656 309.960938 185.578125 310.15625 C 184.9375 310.351562 184.308594 310.574219 183.691406 310.832031 C 183.070312 311.085938 182.464844 311.371094 181.875 311.6875 C 181.285156 312.003906 180.710938 312.347656 180.152344 312.71875 C 179.597656 313.089844 179.058594 313.488281 178.542969 313.910156 C 178.023438 314.335938 177.527344 314.785156 177.054688 315.257812 C 176.582031 315.730469 176.132812 316.222656 175.707031 316.742188 C 175.28125 317.257812 174.882812 317.792969 174.511719 318.351562 C 174.136719 318.90625 173.792969 319.480469 173.480469 320.066406 C 173.164062 320.65625 172.875 321.261719 172.621094 321.878906 C 172.363281 322.496094 172.140625 323.125 171.945312 323.765625 C 171.75 324.40625 171.585938 325.054688 171.457031 325.710938 C 171.324219 326.363281 171.226562 327.027344 171.160156 327.691406 C 171.097656 328.355469 171.0625 329.023438 171.0625 329.691406 C 171.0625 330.359375 171.097656 331.027344 171.160156 331.691406 C 171.226562 332.359375 171.324219 333.019531 171.457031 333.675781 C 171.585938 334.332031 171.75 334.976562 171.945312 335.617188 C 172.140625 336.257812 172.363281 336.886719 172.621094 337.503906 C 172.875 338.121094 173.164062 338.726562 173.480469 339.316406 C 173.792969 339.90625 174.136719 340.476562 174.511719 341.035156 C 174.882812 341.589844 175.28125 342.125 175.707031 342.644531 C 176.132812 343.160156 176.582031 343.65625 177.054688 344.128906 C 177.527344 344.601562 178.023438 345.050781 178.542969 345.472656 C 179.058594 345.898438 179.597656 346.296875 180.152344 346.667969 C 180.710938 347.039062 181.285156 347.382812 181.875 347.695312 C 182.464844 348.011719 183.070312 348.296875 183.691406 348.554688 C 184.308594 348.808594 184.9375 349.035156 185.578125 349.226562 C 186.222656 349.421875 186.871094 349.585938 187.527344 349.714844 C 188.183594 349.84375 188.847656 349.941406 189.511719 350.007812 C 190.179688 350.074219 190.847656 350.105469 191.515625 350.105469 C 192.1875 350.105469 192.855469 350.074219 193.523438 350.007812 C 194.1875 349.941406 194.851562 349.84375 195.507812 349.714844 C 196.164062 349.585938 196.8125 349.421875 197.453125 349.226562 C 198.097656 349.035156 198.726562 348.808594 199.34375 348.554688 C 199.964844 348.296875 200.570312 348.011719 201.160156 347.695312 C 201.75 347.382812 202.324219 347.039062 202.882812 346.667969 C 203.4375 346.296875 203.976562 345.898438 204.492188 345.472656 C 205.011719 345.050781 205.507812 344.601562 205.980469 344.128906 C 206.453125 343.65625 206.902344 343.160156 207.328125 342.644531 C 207.753906 342.125 208.152344 341.589844 208.523438 341.035156 C 208.898438 340.476562 209.242188 339.90625 209.554688 339.316406 C 209.871094 338.726562 210.15625 338.121094 210.414062 337.503906 C 210.671875 336.886719 210.894531 336.257812 211.089844 335.617188 C 211.285156 334.976562 211.449219 334.332031 211.578125 333.675781 C 211.710938 333.019531 211.808594 332.359375 211.871094 331.691406 C 211.9375 331.027344 211.972656 330.359375 211.972656 329.691406 C 211.972656 329.023438 211.9375 328.355469 211.871094 327.691406 C 211.808594 327.027344 211.710938 326.363281 211.578125 325.710938 C 211.449219 325.054688 211.285156 324.40625 211.089844 323.765625 C 210.894531 323.125 210.671875 322.496094 210.414062 321.878906 C 210.15625 321.261719 209.871094 320.65625 209.554688 320.066406 C 209.242188 319.480469 208.898438 318.90625 208.523438 318.351562 C 208.152344 317.792969 207.753906 317.257812 207.328125 316.742188 C 206.902344 316.222656 206.453125 315.730469 205.980469 315.257812 C 205.507812 314.785156 205.011719 314.335938 204.492188 313.910156 C 203.976562 313.488281 203.4375 313.089844 202.882812 312.71875 C 202.324219 312.347656 201.75 312.003906 201.160156 311.6875 C 200.570312 311.371094 199.964844 311.085938 199.34375 310.832031 C 198.726562 310.574219 198.097656 310.351562 197.453125 310.15625 C 196.8125 309.960938 196.164062 309.800781 195.507812 309.667969 C 194.851562 309.539062 194.1875 309.441406 193.523438 309.375 C 192.855469 309.308594 192.1875 309.277344 191.515625 309.277344 Z M 191.515625 338.636719 C 190.929688 338.636719 190.347656 338.582031 189.769531 338.464844 C 189.191406 338.351562 188.632812 338.183594 188.085938 337.957031 C 187.542969 337.730469 187.027344 337.457031 186.539062 337.128906 C 186.046875 336.804688 185.597656 336.433594 185.179688 336.019531 C 184.761719 335.601562 184.390625 335.148438 184.066406 334.660156 C 183.738281 334.171875 183.460938 333.65625 183.238281 333.117188 C 183.011719 332.574219 182.839844 332.011719 182.726562 331.4375 C 182.613281 330.859375 182.554688 330.28125 182.554688 329.691406 C 182.554688 329.105469 182.613281 328.523438 182.726562 327.945312 C 182.839844 327.371094 183.011719 326.8125 183.238281 326.269531 C 183.460938 325.726562 183.738281 325.210938 184.066406 324.722656 C 184.390625 324.234375 184.761719 323.78125 185.179688 323.367188 C 185.597656 322.949219 186.046875 322.578125 186.539062 322.253906 C 187.027344 321.925781 187.542969 321.652344 188.085938 321.425781 C 188.632812 321.203125 189.191406 321.03125 189.769531 320.917969 C 190.347656 320.804688 190.929688 320.746094 191.515625 320.746094 C 192.105469 320.746094 192.6875 320.804688 193.265625 320.917969 C 193.84375 321.03125 194.402344 321.203125 194.949219 321.425781 C 195.492188 321.652344 196.007812 321.925781 196.496094 322.253906 C 196.988281 322.578125 197.4375 322.949219 197.855469 323.367188 C 198.269531 323.78125 198.644531 324.234375 198.96875 324.722656 C 199.296875 325.210938 199.574219 325.726562 199.796875 326.269531 C 200.023438 326.8125 200.195312 327.371094 200.308594 327.945312 C 200.421875 328.523438 200.480469 329.105469 200.480469 329.691406 C 200.480469 330.28125 200.421875 330.859375 200.308594 331.4375 C 200.195312 332.011719 200.023438 332.574219 199.796875 333.117188 C 199.574219 333.65625 199.296875 334.171875 198.96875 334.660156 C 198.644531 335.152344 198.269531 335.601562 197.855469 336.019531 C 197.4375 336.433594 196.988281 336.804688 196.496094 337.128906 C 196.007812 337.457031 195.492188 337.730469 194.949219 337.957031 C 194.402344 338.183594 193.84375 338.351562 193.265625 338.464844 C 192.6875 338.582031 192.105469 338.636719 191.515625 338.636719 Z M 191.515625 338.636719"/></svg>