<svg xmlns="http://www.w3.org/2000/svg" width="110" viewBox="0 0 375 375" height="110" version="1.0"><defs><clipPath id="a"><path d="M 12.023438 162 L 210 162 L 210 360 L 12.023438 360 Z M 12.023438 162"/></clipPath><clipPath id="b"><path d="M 12.023438 92 L 361 92 L 361 151 L 12.023438 151 Z M 12.023438 92"/></clipPath></defs><path fill="#FFF" d="M-37.5 -37.5H412.5V412.5H-37.5z"/><path fill="#FFF" d="M-37.5 -37.5H412.5V412.5H-37.5z"/><g clip-path="url(#a)"><path d="M 187.695312 198.914062 C 184.96875 195.539062 182.027344 192.363281 178.878906 189.375 C 175.730469 186.390625 172.402344 183.625 168.886719 181.078125 C 165.375 178.535156 161.710938 176.230469 157.894531 174.164062 C 154.078125 172.101562 150.144531 170.296875 146.089844 168.753906 C 141.863281 167.152344 137.550781 165.847656 133.152344 164.832031 C 128.75 163.816406 124.300781 163.105469 119.804688 162.691406 C 115.308594 162.28125 110.804688 162.171875 106.292969 162.371094 C 101.78125 162.566406 97.300781 163.066406 92.859375 163.871094 C 89.894531 164.453125 87.046875 165.089844 84.082031 165.90625 C 81.117188 166.71875 78.269531 167.648438 75.539062 168.753906 C 73.222656 169.640625 70.9375 170.609375 68.691406 171.667969 C 66.449219 172.726562 64.246094 173.871094 62.085938 175.09375 C 59.925781 176.320312 57.816406 177.621094 55.753906 179.007812 C 53.691406 180.390625 51.6875 181.847656 49.734375 183.382812 C 47.785156 184.917969 45.894531 186.527344 44.0625 188.203125 C 42.234375 189.878906 40.46875 191.625 38.769531 193.433594 C 37.070312 195.246094 35.441406 197.117188 33.886719 199.050781 C 32.328125 200.984375 30.84375 202.972656 29.4375 205.019531 C 28.03125 207.0625 26.699219 209.160156 25.449219 211.304688 C 24.203125 213.449219 23.035156 215.640625 21.949219 217.871094 C 20.863281 220.105469 19.867188 222.375 18.953125 224.683594 C 18.039062 226.992188 17.214844 229.332031 16.476562 231.703125 C 15.738281 234.074219 15.09375 236.46875 14.535156 238.890625 C 13.980469 241.308594 13.515625 243.746094 13.144531 246.203125 C 12.769531 248.65625 12.488281 251.121094 12.304688 253.597656 C 12.117188 256.074219 12.023438 258.550781 12.023438 261.035156 C 12.023438 262.71875 12.023438 264.347656 12.023438 266.089844 C 12.480469 274.800781 14.054688 283.300781 16.742188 291.597656 C 19.433594 299.894531 23.148438 307.703125 27.886719 315.023438 C 29.574219 317.578125 31.375 320.019531 33.234375 322.402344 C 36.503906 326.519531 40.078125 330.355469 43.960938 333.90625 C 47.839844 337.457031 51.976562 340.675781 56.367188 343.570312 C 60.761719 346.460938 65.355469 348.988281 70.148438 351.148438 C 74.945312 353.308594 79.878906 355.078125 84.953125 356.457031 C 93.386719 358.703125 101.96875 359.828125 110.699219 359.828125 C 119.425781 359.828125 128.007812 358.703125 136.441406 356.457031 C 142.277344 354.902344 147.914062 352.808594 153.351562 350.179688 C 164.328125 344.972656 174.011719 337.980469 182.410156 329.203125 C 186.582031 324.804688 190.339844 320.078125 193.683594 315.023438 C 198.441406 307.6875 202.171875 299.863281 204.871094 291.546875 C 207.570312 283.230469 209.148438 274.707031 209.605469 265.976562 C 209.605469 264.347656 209.605469 262.71875 209.605469 261.035156 C 209.605469 258.246094 209.605469 255.222656 209.257812 252.609375 C 208.835938 247.726562 208.058594 242.898438 206.921875 238.128906 C 205.785156 233.363281 204.304688 228.703125 202.480469 224.152344 C 200.652344 219.605469 198.5 215.214844 196.023438 210.984375 C 193.546875 206.753906 190.769531 202.730469 187.695312 198.914062 Z M 185.429688 306.074219 L 153.875 306.828125 L 140.453125 288.929688 L 150.503906 254.527344 L 168.925781 246.566406 L 197.578125 268.472656 C 197.011719 275.121094 195.703125 281.617188 193.652344 287.96875 C 191.601562 294.316406 188.859375 300.351562 185.429688 306.074219 Z M 175.785156 319.148438 C 174.273438 320.773438 172.761719 322.402344 171.136719 323.914062 L 169.160156 325.832031 C 166.894531 327.863281 164.570312 329.78125 162.128906 331.640625 C 159.664062 333.429688 157.105469 335.078125 154.457031 336.582031 L 151.957031 337.976562 C 150.039062 338.964844 148.121094 339.894531 146.148438 340.765625 L 144.636719 341.40625 L 152.65625 318.507812 L 176.886719 317.984375 Z M 75.945312 340.765625 C 73.972656 339.835938 71.996094 338.90625 70.136719 337.859375 L 67.289062 336.582031 C 64.671875 335.011719 62.058594 333.386719 59.617188 331.585938 C 57.175781 329.78125 54.792969 327.808594 52.527344 325.773438 L 50.550781 323.855469 C 48.984375 322.34375 47.414062 320.773438 45.960938 319.089844 L 44.914062 317.925781 L 69.148438 318.449219 L 77.167969 341.347656 Z M 67.753906 306.828125 L 36.199219 306.074219 C 32.761719 300.351562 30.011719 294.316406 27.953125 287.96875 C 25.890625 281.621094 24.574219 275.121094 23.992188 268.472656 L 52.703125 246.566406 L 71.179688 254.527344 L 81.175781 288.929688 Z M 25.214844 244.820312 L 25.738281 242.324219 C 26.261719 240.058594 26.839844 237.847656 27.539062 235.640625 L 28.234375 233.257812 C 29.222656 230.410156 30.269531 227.445312 31.492188 224.890625 L 32.011719 223.84375 C 33.117188 221.460938 34.394531 219.078125 35.734375 216.8125 L 36.371094 215.824219 L 43.289062 239.070312 L 23.9375 253.886719 C 24.226562 250.75 24.691406 247.785156 25.214844 244.820312 Z M 91.925781 284.28125 L 82.6875 252.667969 L 110.8125 233.257812 L 138.941406 252.667969 L 129.699219 284.28125 Z M 92.335938 175.902344 C 94.484375 175.433594 96.691406 175.085938 98.902344 174.738281 L 101.574219 174.390625 C 107.734375 173.75 113.894531 173.75 120.054688 174.390625 L 122.785156 174.738281 C 124.9375 175.085938 127.144531 175.433594 129.234375 175.902344 L 130.746094 176.25 L 110.8125 190.023438 L 90.882812 176.25 Z M 185.894531 216.578125 C 187.230469 218.84375 188.453125 221.171875 189.613281 223.609375 C 189.765625 223.972656 189.941406 224.320312 190.136719 224.65625 C 191.359375 227.386719 192.40625 230.175781 193.390625 233.023438 L 194.089844 235.40625 C 194.785156 237.617188 195.367188 239.824219 195.890625 242.089844 L 196.414062 244.589844 C 196.9375 247.554688 197.402344 250.402344 197.691406 253.539062 L 178.339844 238.777344 L 185.257812 215.53125 Z M 176.714844 203.734375 L 167.589844 234.304688 L 146.320312 243.601562 L 116.625 223.144531 L 116.625 199.902344 L 144.695312 180.492188 C 150.855469 183.132812 156.640625 186.433594 162.046875 190.398438 C 167.453125 194.363281 172.34375 198.886719 176.714844 203.96875 Z M 76.933594 180.492188 L 105.003906 200.132812 L 105.003906 223.378906 L 75.308594 243.601562 L 54.097656 234.535156 L 44.914062 203.96875 C 49.300781 198.929688 54.195312 194.445312 59.601562 190.523438 C 65.007812 186.597656 70.785156 183.332031 76.933594 180.722656 Z M 90.996094 345.878906 L 78.910156 311.359375 L 90.53125 295.902344 L 131.210938 295.902344 L 142.835938 311.359375 L 130.628906 345.878906 C 124.113281 347.390625 117.507812 348.148438 110.8125 348.148438 C 104.121094 348.148438 97.515625 347.390625 90.996094 345.878906 Z M 90.996094 345.878906"/></g><path d="M 296.773438 162.242188 C 257.78125 162.242188 232.851562 220.761719 232.851562 261.035156 C 232.851562 301.308594 257.78125 359.828125 296.773438 359.828125 C 335.769531 359.828125 360.699219 301.308594 360.699219 261.035156 C 360.699219 220.761719 335.769531 162.242188 296.773438 162.242188 Z M 296.773438 173.867188 C 310.199219 173.867188 321.648438 183.453125 330.421875 197.113281 L 263.128906 197.113281 C 271.902344 183.453125 283.351562 173.867188 296.773438 173.867188 Z M 256.734375 208.734375 L 290.964844 208.734375 L 290.964844 220.355469 L 273.53125 220.355469 L 273.53125 231.980469 L 290.964844 231.980469 L 290.964844 243.601562 L 273.53125 243.601562 L 273.53125 255.222656 L 290.964844 255.222656 L 290.964844 266.847656 L 273.53125 266.847656 L 273.53125 278.46875 L 290.964844 278.46875 L 290.964844 290.089844 L 273.53125 290.089844 L 273.53125 301.714844 L 290.964844 301.714844 L 290.964844 313.335938 L 256.734375 313.335938 C 252.902344 305.136719 249.953125 296.632812 247.886719 287.824219 C 245.820312 279.011719 244.683594 270.082031 244.472656 261.035156 C 244.683594 251.988281 245.820312 243.058594 247.886719 234.246094 C 249.953125 225.4375 252.902344 216.933594 256.734375 208.734375 Z M 296.773438 348.203125 C 283.351562 348.203125 271.902344 338.617188 263.128906 324.960938 L 330.421875 324.960938 C 321.648438 338.617188 310.199219 348.203125 296.773438 348.203125 Z M 336.8125 313.335938 L 302.585938 313.335938 L 302.585938 301.714844 L 320.019531 301.714844 L 320.019531 290.089844 L 302.585938 290.089844 L 302.585938 278.46875 L 320.019531 278.46875 L 320.019531 266.847656 L 302.585938 266.847656 L 302.585938 255.222656 L 320.019531 255.222656 L 320.019531 243.601562 L 302.585938 243.601562 L 302.585938 231.980469 L 320.019531 231.980469 L 320.019531 220.355469 L 302.585938 220.355469 L 302.585938 208.734375 L 336.8125 208.734375 C 340.648438 216.933594 343.597656 225.4375 345.664062 234.246094 C 347.726562 243.058594 348.867188 251.988281 349.074219 261.035156 C 348.867188 270.082031 347.726562 279.011719 345.664062 287.824219 C 343.597656 296.632812 340.648438 305.136719 336.8125 313.335938 Z M 336.8125 313.335938"/><g clip-path="url(#b)"><path d="M 28.234375 150.621094 L 30.675781 150.621094 C 31.539062 150.617188 32.398438 150.542969 33.25 150.398438 C 34.101562 150.253906 34.933594 150.046875 35.753906 149.769531 C 36.570312 149.492188 37.359375 149.152344 38.125 148.746094 C 38.886719 148.34375 39.613281 147.882812 40.300781 147.363281 C 40.992188 146.839844 41.636719 146.269531 42.230469 145.648438 C 42.828125 145.023438 43.375 144.355469 43.863281 143.644531 C 44.355469 142.9375 44.785156 142.191406 45.15625 141.410156 C 45.527344 140.632812 45.835938 139.828125 46.078125 139 L 98.960938 140.976562 L 122.203125 141.847656 L 122.4375 141.847656 L 331.640625 149.574219 L 332.457031 149.574219 C 333.855469 149.578125 335.246094 149.480469 336.628906 149.277344 C 338.011719 149.070312 339.371094 148.765625 340.707031 148.363281 C 342.046875 147.957031 343.347656 147.453125 344.609375 146.855469 C 345.875 146.253906 347.085938 145.566406 348.246094 144.785156 C 349.40625 144.003906 350.5 143.144531 351.535156 142.203125 C 352.566406 141.257812 353.523438 140.246094 354.40625 139.160156 C 355.285156 138.074219 356.082031 136.929688 356.792969 135.726562 C 357.503906 134.523438 358.121094 133.273438 358.648438 131.976562 C 359.171875 130.679688 359.597656 129.355469 359.925781 127.996094 C 360.253906 126.636719 360.480469 125.261719 360.601562 123.867188 C 360.726562 122.476562 360.742188 121.082031 360.660156 119.683594 C 360.574219 118.289062 360.386719 116.910156 360.097656 115.539062 C 359.808594 114.171875 359.417969 112.835938 358.929688 111.523438 C 358.4375 110.214844 357.855469 108.949219 357.175781 107.726562 C 356.5 106.503906 355.734375 105.339844 354.882812 104.230469 C 354.03125 103.121094 353.105469 102.082031 352.097656 101.109375 C 350.746094 99.800781 349.277344 98.644531 347.6875 97.640625 C 346.101562 96.632812 344.425781 95.796875 342.667969 95.132812 C 340.910156 94.46875 339.101562 93.988281 337.246094 93.695312 C 335.386719 93.398438 333.519531 93.292969 331.640625 93.378906 L 122.4375 101.109375 L 99.191406 101.980469 L 46.078125 104.132812 C 45.835938 103.300781 45.527344 102.5 45.15625 101.71875 C 44.785156 100.941406 44.355469 100.195312 43.863281 99.484375 C 43.375 98.773438 42.828125 98.105469 42.230469 97.484375 C 41.636719 96.859375 40.992188 96.289062 40.300781 95.769531 C 39.613281 95.25 38.886719 94.785156 38.125 94.382812 C 37.359375 93.980469 36.570312 93.640625 35.753906 93.363281 C 34.933594 93.085938 34.101562 92.875 33.25 92.730469 C 32.398438 92.589844 31.539062 92.515625 30.675781 92.507812 L 28.234375 92.507812 C 27.707031 92.507812 27.175781 92.535156 26.648438 92.585938 C 26.117188 92.640625 25.59375 92.714844 25.074219 92.820312 C 24.550781 92.925781 24.039062 93.054688 23.53125 93.207031 C 23.023438 93.359375 22.523438 93.539062 22.03125 93.742188 C 21.542969 93.945312 21.0625 94.171875 20.59375 94.421875 C 20.125 94.671875 19.671875 94.945312 19.230469 95.242188 C 18.789062 95.535156 18.359375 95.851562 17.949219 96.1875 C 17.539062 96.527344 17.148438 96.882812 16.773438 97.257812 C 16.394531 97.632812 16.039062 98.027344 15.703125 98.4375 C 15.367188 98.847656 15.050781 99.273438 14.753906 99.714844 C 14.460938 100.15625 14.1875 100.609375 13.9375 101.078125 C 13.6875 101.546875 13.460938 102.027344 13.257812 102.519531 C 13.054688 103.007812 12.875 103.507812 12.722656 104.015625 C 12.566406 104.523438 12.4375 105.039062 12.335938 105.558594 C 12.230469 106.078125 12.152344 106.605469 12.101562 107.132812 C 12.050781 107.660156 12.023438 108.191406 12.023438 108.722656 L 12.023438 134.40625 C 12.023438 134.9375 12.050781 135.46875 12.101562 135.996094 C 12.152344 136.527344 12.230469 137.050781 12.335938 137.570312 C 12.4375 138.09375 12.566406 138.605469 12.722656 139.113281 C 12.875 139.621094 13.054688 140.121094 13.257812 140.613281 C 13.460938 141.101562 13.6875 141.582031 13.9375 142.050781 C 14.1875 142.519531 14.460938 142.972656 14.753906 143.414062 C 15.050781 143.855469 15.367188 144.285156 15.703125 144.695312 C 16.039062 145.105469 16.394531 145.496094 16.773438 145.871094 C 17.148438 146.25 17.539062 146.605469 17.949219 146.941406 C 18.359375 147.277344 18.785156 147.59375 19.230469 147.890625 C 19.671875 148.183594 20.125 148.457031 20.59375 148.707031 C 21.0625 148.957031 21.542969 149.183594 22.03125 149.386719 C 22.523438 149.589844 23.023438 149.769531 23.53125 149.921875 C 24.039062 150.078125 24.550781 150.207031 25.074219 150.308594 C 25.59375 150.414062 26.117188 150.492188 26.648438 150.542969 C 27.175781 150.59375 27.707031 150.621094 28.234375 150.621094 Z M 116.625 112.964844 L 116.625 130.398438 L 105.003906 129.992188 L 105.003906 113.371094 Z M 93.378906 129.292969 L 46.890625 127.375 L 46.890625 115.753906 L 93.378906 114.070312 Z M 331.640625 105.003906 C 333.898438 104.921875 336.082031 105.285156 338.1875 106.089844 C 340.296875 106.898438 342.164062 108.085938 343.789062 109.652344 C 344.609375 110.414062 345.347656 111.246094 346 112.160156 C 346.652344 113.070312 347.207031 114.039062 347.664062 115.0625 C 348.117188 116.085938 348.464844 117.144531 348.703125 118.242188 C 348.941406 119.335938 349.0625 120.445312 349.074219 121.566406 C 349.074219 122.109375 349.046875 122.648438 348.992188 123.191406 C 348.933594 123.730469 348.855469 124.265625 348.746094 124.800781 C 348.640625 125.332031 348.503906 125.859375 348.347656 126.375 C 348.1875 126.894531 348.003906 127.40625 347.792969 127.90625 C 347.585938 128.410156 347.351562 128.898438 347.09375 129.375 C 346.835938 129.855469 346.558594 130.320312 346.253906 130.769531 C 345.953125 131.222656 345.628906 131.65625 345.28125 132.074219 C 344.9375 132.496094 344.570312 132.894531 344.1875 133.28125 C 343.804688 133.664062 343.398438 134.027344 342.980469 134.371094 C 342.558594 134.714844 342.125 135.039062 341.671875 135.339844 C 341.21875 135.640625 340.753906 135.917969 340.273438 136.171875 C 339.796875 136.429688 339.304688 136.660156 338.800781 136.867188 C 338.300781 137.074219 337.789062 137.257812 337.269531 137.414062 C 336.75 137.570312 336.222656 137.703125 335.691406 137.808594 C 335.160156 137.914062 334.621094 137.996094 334.082031 138.046875 C 333.539062 138.101562 333 138.128906 332.457031 138.128906 L 331.640625 138.128906 L 128.25 130.574219 L 128.25 112.558594 Z M 23.644531 108.722656 C 23.644531 108.421875 23.675781 108.121094 23.734375 107.828125 C 23.792969 107.53125 23.878906 107.242188 23.996094 106.964844 C 24.109375 106.6875 24.25 106.421875 24.417969 106.171875 C 24.585938 105.921875 24.777344 105.6875 24.988281 105.476562 C 25.203125 105.261719 25.433594 105.074219 25.6875 104.90625 C 25.9375 104.738281 26.199219 104.597656 26.480469 104.480469 C 26.757812 104.367188 27.046875 104.277344 27.339844 104.21875 C 27.636719 104.160156 27.933594 104.132812 28.234375 104.132812 L 30.675781 104.132812 C 30.976562 104.132812 31.277344 104.160156 31.574219 104.21875 C 31.867188 104.277344 32.15625 104.367188 32.433594 104.480469 C 32.710938 104.597656 32.976562 104.738281 33.226562 104.90625 C 33.476562 105.074219 33.710938 105.261719 33.921875 105.476562 C 34.136719 105.6875 34.328125 105.921875 34.496094 106.171875 C 34.660156 106.421875 34.804688 106.6875 34.917969 106.964844 C 35.035156 107.242188 35.121094 107.53125 35.179688 107.828125 C 35.238281 108.121094 35.269531 108.421875 35.269531 108.722656 L 35.269531 134.40625 C 35.269531 134.710938 35.238281 135.007812 35.179688 135.304688 C 35.121094 135.597656 35.035156 135.886719 34.917969 136.164062 C 34.804688 136.441406 34.660156 136.707031 34.496094 136.957031 C 34.328125 137.210938 34.136719 137.441406 33.921875 137.652344 C 33.710938 137.867188 33.476562 138.058594 33.226562 138.226562 C 32.976562 138.394531 32.710938 138.535156 32.433594 138.648438 C 32.15625 138.765625 31.867188 138.851562 31.574219 138.910156 C 31.277344 138.96875 30.976562 139 30.675781 139 L 28.234375 139 C 27.933594 139 27.636719 138.96875 27.339844 138.910156 C 27.046875 138.851562 26.757812 138.765625 26.480469 138.648438 C 26.199219 138.535156 25.9375 138.394531 25.6875 138.226562 C 25.433594 138.058594 25.203125 137.867188 24.988281 137.652344 C 24.777344 137.441406 24.585938 137.210938 24.417969 136.957031 C 24.25 136.707031 24.109375 136.441406 23.996094 136.164062 C 23.878906 135.886719 23.792969 135.597656 23.734375 135.304688 C 23.675781 135.007812 23.644531 134.710938 23.644531 134.40625 Z M 23.644531 108.722656"/></g><path d="M 302.585938 86.699219 C 304.261719 86.707031 305.933594 86.59375 307.59375 86.359375 C 309.253906 86.125 310.890625 85.773438 312.5 85.304688 C 314.113281 84.835938 315.679688 84.253906 317.207031 83.558594 C 318.734375 82.863281 320.203125 82.0625 321.613281 81.15625 C 323.023438 80.246094 324.359375 79.242188 325.625 78.140625 C 326.894531 77.042969 328.074219 75.855469 329.167969 74.585938 C 330.261719 73.3125 331.261719 71.972656 332.160156 70.554688 C 333.0625 69.140625 333.855469 67.667969 334.542969 66.140625 C 335.234375 64.609375 335.808594 63.039062 336.269531 61.425781 C 336.730469 59.8125 337.074219 58.175781 337.300781 56.511719 C 337.523438 54.851562 337.628906 53.179688 337.613281 51.503906 C 337.597656 49.828125 337.460938 48.160156 337.207031 46.5 C 336.949219 44.84375 336.574219 43.210938 336.082031 41.609375 C 335.59375 40.003906 334.988281 38.445312 334.269531 36.929688 C 333.554688 35.414062 332.730469 33.953125 331.804688 32.558594 C 330.878906 31.160156 329.855469 29.835938 328.738281 28.585938 C 328 27.671875 327.21875 26.796875 326.394531 25.960938 C 325.570312 25.125 324.707031 24.335938 323.800781 23.585938 C 322.898438 22.839844 321.957031 22.136719 320.980469 21.484375 C 320.007812 20.832031 319 20.230469 317.964844 19.679688 C 316.929688 19.125 315.867188 18.628906 314.78125 18.183594 C 313.695312 17.738281 312.589844 17.351562 311.464844 17.019531 C 310.339844 16.6875 309.199219 16.410156 308.046875 16.195312 C 306.890625 15.976562 305.730469 15.816406 304.5625 15.714844 C 303.390625 15.617188 302.21875 15.574219 301.046875 15.59375 C 299.871094 15.609375 298.703125 15.6875 297.539062 15.824219 C 296.371094 15.960938 295.214844 16.15625 294.070312 16.40625 C 292.921875 16.660156 291.792969 16.972656 290.679688 17.339844 C 289.5625 17.703125 288.46875 18.128906 287.398438 18.605469 C 286.324219 19.082031 285.28125 19.613281 284.261719 20.195312 C 283.242188 20.777344 282.257812 21.410156 281.300781 22.09375 C 280.347656 22.777344 279.429688 23.503906 278.546875 24.28125 C 277.667969 25.054688 276.828125 25.875 276.027344 26.734375 C 275.230469 27.59375 274.476562 28.492188 273.769531 29.429688 C 273.0625 30.367188 272.402344 31.335938 271.792969 32.335938 C 271.183594 33.339844 270.625 34.371094 270.117188 35.429688 C 269.613281 36.488281 269.160156 37.570312 268.765625 38.675781 C 268.367188 39.78125 268.027344 40.902344 267.746094 42.042969 C 267.460938 43.179688 267.238281 44.332031 267.070312 45.492188 C 266.902344 46.65625 266.792969 47.820312 266.746094 48.996094 C 266.695312 50.167969 266.707031 51.339844 266.773438 52.511719 C 266.84375 53.683594 266.972656 54.847656 267.160156 56.007812 C 267.347656 57.164062 267.589844 58.3125 267.894531 59.445312 C 268.195312 60.578125 268.554688 61.695312 268.96875 62.792969 C 269.386719 63.890625 269.855469 64.964844 270.378906 66.015625 C 270.902344 67.066406 271.476562 68.085938 272.105469 69.078125 C 272.730469 70.070312 273.40625 71.03125 274.128906 71.953125 C 274.855469 72.878906 275.621094 73.765625 276.433594 74.609375 C 278.058594 76.492188 279.863281 78.179688 281.84375 79.675781 C 283.828125 81.167969 285.949219 82.4375 288.203125 83.480469 C 290.457031 84.523438 292.796875 85.316406 295.222656 85.859375 C 297.648438 86.398438 300.101562 86.679688 302.585938 86.699219 Z M 279.921875 47.007812 C 279.992188 46.503906 280.128906 46.019531 280.328125 45.554688 C 280.609375 44.457031 280.976562 43.394531 281.433594 42.359375 L 281.839844 41.601562 C 282.375 42.339844 282.847656 43.117188 283.261719 43.929688 C 283.675781 44.746094 284.023438 45.585938 284.304688 46.453125 C 284.585938 47.324219 284.800781 48.207031 284.941406 49.109375 C 285.082031 50.011719 285.15625 50.917969 285.15625 51.828125 C 285.15625 52.742188 285.082031 53.648438 284.941406 54.550781 C 284.800781 55.453125 284.585938 56.335938 284.304688 57.207031 C 284.023438 58.074219 283.675781 58.914062 283.261719 59.730469 C 282.847656 60.542969 282.375 61.320312 281.839844 62.058594 L 281.492188 61.359375 C 281.015625 60.308594 280.628906 59.222656 280.328125 58.105469 C 280.128906 57.640625 279.992188 57.15625 279.921875 56.652344 C 279.550781 55.066406 279.359375 53.457031 279.339844 51.828125 C 279.359375 50.199219 279.550781 48.59375 279.921875 47.007812 Z M 323.679688 42.300781 C 324.15625 43.351562 324.542969 44.4375 324.84375 45.554688 C 325.042969 46.019531 325.175781 46.503906 325.25 47.007812 C 325.617188 48.59375 325.8125 50.199219 325.832031 51.828125 C 325.8125 53.457031 325.617188 55.066406 325.25 56.652344 C 325.175781 57.15625 325.042969 57.640625 324.84375 58.105469 C 324.5625 59.203125 324.195312 60.265625 323.738281 61.300781 L 323.332031 62.058594 C 322.796875 61.320312 322.320312 60.542969 321.910156 59.730469 C 321.496094 58.914062 321.148438 58.074219 320.867188 57.207031 C 320.585938 56.335938 320.371094 55.453125 320.230469 54.550781 C 320.085938 53.648438 320.015625 52.742188 320.015625 51.828125 C 320.015625 50.917969 320.085938 50.011719 320.230469 49.109375 C 320.371094 48.207031 320.585938 47.324219 320.867188 46.453125 C 321.148438 45.585938 321.496094 44.746094 321.910156 43.929688 C 322.320312 43.117188 322.796875 42.339844 323.332031 41.601562 Z M 315.601562 32.710938 C 315.03125 33.367188 314.488281 34.046875 313.976562 34.75 C 313.464844 35.453125 312.988281 36.179688 312.539062 36.925781 C 312.09375 37.671875 311.683594 38.4375 311.304688 39.222656 C 310.925781 40.003906 310.585938 40.804688 310.28125 41.621094 C 309.972656 42.433594 309.707031 43.261719 309.472656 44.097656 C 309.242188 44.9375 309.050781 45.785156 308.894531 46.640625 C 308.738281 47.496094 308.621094 48.359375 308.542969 49.226562 C 308.464844 50.089844 308.425781 50.960938 308.425781 51.828125 C 308.425781 52.699219 308.464844 53.570312 308.542969 54.433594 C 308.621094 55.300781 308.738281 56.164062 308.894531 57.019531 C 309.050781 57.875 309.242188 58.722656 309.472656 59.5625 C 309.707031 60.398438 309.972656 61.226562 310.28125 62.039062 C 310.585938 62.855469 310.925781 63.65625 311.304688 64.4375 C 311.683594 65.222656 312.09375 65.988281 312.539062 66.734375 C 312.988281 67.480469 313.464844 68.207031 313.976562 68.910156 C 314.488281 69.613281 315.03125 70.292969 315.601562 70.949219 C 314.65625 71.617188 313.664062 72.207031 312.625 72.722656 C 311.589844 73.234375 310.515625 73.667969 309.414062 74.015625 C 308.308594 74.367188 307.183594 74.628906 306.039062 74.808594 C 304.894531 74.984375 303.742188 75.074219 302.585938 75.074219 C 301.425781 75.074219 300.277344 74.984375 299.132812 74.808594 C 297.988281 74.628906 296.863281 74.367188 295.757812 74.015625 C 294.652344 73.667969 293.582031 73.234375 292.546875 72.722656 C 291.507812 72.207031 290.515625 71.617188 289.570312 70.949219 C 290.140625 70.292969 290.683594 69.613281 291.195312 68.910156 C 291.707031 68.207031 292.183594 67.480469 292.632812 66.734375 C 293.078125 65.988281 293.488281 65.222656 293.867188 64.4375 C 294.246094 63.65625 294.585938 62.855469 294.890625 62.039062 C 295.199219 61.226562 295.464844 60.398438 295.699219 59.5625 C 295.929688 58.722656 296.121094 57.875 296.277344 57.019531 C 296.433594 56.164062 296.550781 55.300781 296.628906 54.433594 C 296.707031 53.570312 296.746094 52.699219 296.746094 51.828125 C 296.746094 50.960938 296.707031 50.089844 296.628906 49.226562 C 296.550781 48.359375 296.433594 47.496094 296.277344 46.640625 C 296.121094 45.785156 295.929688 44.9375 295.699219 44.097656 C 295.464844 43.261719 295.199219 42.433594 294.890625 41.621094 C 294.585938 40.804688 294.246094 40.003906 293.867188 39.222656 C 293.488281 38.4375 293.078125 37.671875 292.632812 36.925781 C 292.183594 36.179688 291.707031 35.453125 291.195312 34.75 C 290.683594 34.046875 290.140625 33.367188 289.570312 32.710938 C 290.515625 32.042969 291.507812 31.453125 292.546875 30.9375 C 293.582031 30.425781 294.652344 29.992188 295.757812 29.644531 C 296.863281 29.292969 297.988281 29.03125 299.132812 28.851562 C 300.277344 28.675781 301.425781 28.585938 302.585938 28.585938 C 303.742188 28.585938 304.894531 28.675781 306.039062 28.851562 C 307.183594 29.03125 308.308594 29.292969 309.414062 29.644531 C 310.515625 29.992188 311.589844 30.425781 312.625 30.9375 C 313.664062 31.453125 314.65625 32.042969 315.601562 32.710938 Z M 315.601562 32.710938"/></svg>