<svg xmlns="http://www.w3.org/2000/svg" width="110" viewBox="0 0 375 375" height="110" version="1.0"><defs><clipPath id="a"><path d="M 31.167969 21.148438 L 353.667969 21.148438 L 353.667969 343.648438 L 31.167969 343.648438 Z M 31.167969 21.148438"/></clipPath></defs><path fill="#FFF" d="M-37.5 -37.5H412.5V412.5H-37.5z"/><path fill="#FFF" d="M-37.5 -37.5H412.5V412.5H-37.5z"/><g clip-path="url(#a)"><path d="M 59.832031 343.648438 L 168.945312 343.648438 C 178.652344 343.648438 187.234375 338.789062 192.425781 331.398438 C 197.613281 338.789062 206.191406 343.648438 215.890625 343.648438 L 325 343.648438 C 340.808594 343.648438 353.667969 330.789062 353.667969 314.980469 L 353.667969 205.871094 C 353.667969 190.066406 340.808594 177.207031 325 177.207031 L 269.65625 177.207031 C 273.773438 172.238281 276.25 165.867188 276.25 158.921875 L 276.25 49.8125 C 276.25 34.003906 263.390625 21.148438 247.585938 21.148438 L 138.476562 21.148438 C 122.667969 21.148438 109.808594 34.003906 109.808594 49.8125 L 109.808594 158.929688 C 109.808594 165.867188 112.289062 172.242188 116.40625 177.210938 L 59.832031 177.210938 C 44.03125 177.210938 31.171875 190.070312 31.171875 205.878906 L 31.171875 314.992188 C 31.171875 330.789062 44.03125 343.648438 59.832031 343.648438 Z M 343.257812 205.871094 L 343.257812 314.988281 C 343.257812 325.058594 335.066406 333.25 324.996094 333.25 L 215.890625 333.25 C 205.820312 333.25 197.628906 325.058594 197.628906 314.988281 L 197.628906 205.871094 C 197.628906 195.800781 205.820312 187.609375 215.890625 187.609375 L 325 187.609375 C 335.066406 187.609375 343.257812 195.800781 343.257812 205.871094 Z M 192.421875 189.457031 C 191.980469 188.820312 191.527344 188.203125 191.03125 187.609375 L 193.808594 187.609375 C 193.320312 188.203125 192.867188 188.828125 192.421875 189.457031 Z M 120.214844 158.921875 L 120.214844 49.8125 C 120.214844 39.742188 128.40625 31.550781 138.476562 31.550781 L 247.589844 31.550781 C 257.660156 31.550781 265.851562 39.742188 265.851562 49.8125 L 265.851562 158.929688 C 265.851562 169.007812 257.660156 177.210938 247.589844 177.210938 L 138.476562 177.210938 C 128.40625 177.207031 120.214844 169.003906 120.214844 158.921875 Z M 41.574219 205.871094 C 41.574219 195.800781 49.765625 187.609375 59.832031 187.609375 L 168.941406 187.609375 C 179.023438 187.609375 187.226562 195.800781 187.226562 205.871094 L 187.226562 314.988281 C 187.226562 325.058594 179.023438 333.25 168.941406 333.25 L 59.832031 333.25 C 49.765625 333.25 41.574219 325.058594 41.574219 314.988281 Z M 41.574219 205.871094"/></g><path d="M 66.328125 320.183594 L 162.464844 320.183594 C 168.90625 320.183594 174.144531 314.933594 174.144531 308.484375 L 174.144531 212.347656 C 174.144531 205.910156 168.90625 200.671875 162.464844 200.671875 L 66.328125 200.671875 C 59.878906 200.671875 54.632812 205.910156 54.632812 212.347656 L 54.632812 308.484375 C 54.632812 314.933594 59.878906 320.183594 66.328125 320.183594 Z M 65.035156 212.347656 C 65.035156 211.65625 65.628906 211.074219 66.328125 211.074219 L 162.464844 211.074219 C 163.15625 211.074219 163.738281 211.65625 163.738281 212.347656 L 163.738281 308.484375 C 163.738281 309.1875 163.15625 309.78125 162.464844 309.78125 L 66.328125 309.78125 C 65.636719 309.78125 65.035156 309.175781 65.035156 308.484375 Z M 65.035156 212.347656"/><path d="M 210.691406 212.347656 L 210.691406 308.484375 C 210.691406 314.933594 215.929688 320.183594 222.363281 320.183594 L 318.5 320.183594 C 324.949219 320.183594 330.195312 314.933594 330.195312 308.484375 L 330.195312 212.347656 C 330.195312 205.910156 324.949219 200.671875 318.5 200.671875 L 222.363281 200.671875 C 215.929688 200.671875 210.691406 205.910156 210.691406 212.347656 Z M 319.792969 212.347656 L 319.792969 308.484375 C 319.792969 309.175781 319.191406 309.78125 318.5 309.78125 L 222.363281 309.78125 C 221.675781 309.78125 221.09375 309.1875 221.09375 308.484375 L 221.09375 212.347656 C 221.09375 211.65625 221.675781 211.074219 222.363281 211.074219 L 318.5 211.074219 C 319.199219 211.074219 319.792969 211.65625 319.792969 212.347656 Z M 319.792969 212.347656"/><path d="M 252.785156 152.445312 L 252.785156 56.308594 C 252.785156 49.859375 247.546875 44.613281 241.109375 44.613281 L 144.972656 44.613281 C 138.523438 44.613281 133.273438 49.859375 133.273438 56.308594 L 133.273438 152.445312 C 133.273438 158.886719 138.523438 164.125 144.972656 164.125 L 241.109375 164.125 C 247.546875 164.125 252.785156 158.886719 252.785156 152.445312 Z M 143.675781 152.445312 L 143.675781 56.308594 C 143.675781 55.617188 144.28125 55.015625 144.972656 55.015625 L 241.109375 55.015625 C 241.800781 55.015625 242.382812 55.609375 242.382812 56.308594 L 242.382812 152.445312 C 242.382812 153.136719 241.800781 153.722656 241.109375 153.722656 L 144.972656 153.722656 C 144.269531 153.722656 143.675781 153.136719 143.675781 152.445312 Z M 143.675781 152.445312"/><path d="M 202.179688 82.582031 C 200.464844 77.902344 197.421875 75.5625 193.046875 75.5625 C 188.625 75.5625 185.5625 77.902344 183.839844 82.582031 L 168.3125 124.09375 C 167.949219 125.027344 167.769531 126.070312 167.769531 127.214844 C 167.769531 128.929688 168.363281 130.386719 169.566406 131.582031 C 170.757812 132.777344 172.246094 133.378906 174.007812 133.378906 C 177.179688 133.378906 179.210938 131.921875 180.097656 129.007812 L 182.199219 121.90625 L 203.8125 121.90625 L 206.082031 129.007812 C 207.0625 131.867188 208.992188 133.300781 211.851562 133.300781 C 213.566406 133.300781 215.023438 132.777344 216.222656 131.738281 C 217.46875 130.542969 218.089844 129.269531 218.089844 127.914062 C 218.089844 126.5625 217.882812 125.316406 217.46875 124.171875 Z M 185.792969 110.515625 L 193.050781 88.667969 L 200 110.59375 Z M 185.792969 110.515625"/><path d="M 102.558594 288.582031 L 119.886719 288.582031 C 125.082031 288.582031 129.335938 287.007812 132.640625 283.867188 C 135.941406 280.71875 137.589844 276.722656 137.589844 271.886719 C 137.589844 264.394531 133.820312 259.792969 126.277344 258.074219 C 128.097656 257.085938 129.402344 256.175781 130.179688 255.34375 C 130.960938 254.511719 131.609375 253.367188 132.128906 251.910156 C 132.648438 250.460938 132.910156 248.84375 132.910156 247.074219 C 132.910156 242.601562 131.359375 239.023438 128.265625 236.34375 C 125.164062 233.660156 121.019531 232.328125 115.816406 232.328125 L 102.398438 232.328125 C 100.570312 232.328125 99.039062 232.925781 97.789062 234.121094 C 96.546875 235.320312 95.921875 236.851562 95.921875 238.726562 L 95.921875 282.035156 C 95.921875 283.957031 96.546875 285.535156 97.789062 286.753906 C 99.046875 287.96875 100.628906 288.582031 102.558594 288.582031 Z M 108.648438 243.480469 L 114.734375 243.480469 C 116.347656 243.480469 117.710938 244.027344 118.828125 245.117188 C 119.949219 246.210938 120.503906 247.484375 120.503906 248.941406 C 120.503906 250.449219 119.910156 251.722656 118.710938 252.757812 C 117.511719 253.800781 116.136719 254.320312 114.574219 254.320312 L 108.644531 254.320312 L 108.644531 243.480469 Z M 108.566406 265.25 L 118.402344 265.25 C 120.121094 265.25 121.585938 265.863281 122.8125 267.085938 C 124.03125 268.308594 124.648438 269.78125 124.648438 271.496094 C 124.648438 273.109375 124.035156 274.496094 122.8125 275.671875 C 121.589844 276.84375 120.09375 277.425781 118.324219 277.425781 L 108.566406 277.425781 Z M 108.566406 265.25"/><path d="M 274.132812 289.492188 C 278.972656 289.492188 283.128906 288.558594 286.617188 286.683594 C 290.101562 284.816406 291.84375 282.605469 291.84375 280.058594 C 291.84375 278.441406 291.308594 277.066406 290.242188 275.921875 C 289.175781 274.773438 287.917969 274.207031 286.457031 274.207031 C 285.519531 274.207031 284.6875 274.386719 283.960938 274.746094 L 281.773438 275.683594 C 279.175781 276.832031 276.574219 277.398438 273.972656 277.398438 C 269.65625 277.398438 266.1875 275.839844 263.558594 272.722656 C 260.925781 269.597656 259.617188 265.488281 259.617188 260.394531 C 259.617188 255.246094 260.953125 251.09375 263.632812 247.949219 C 266.3125 244.800781 269.757812 243.226562 273.96875 243.226562 C 276.101562 243.226562 278.519531 243.75 281.230469 244.785156 C 283.464844 245.675781 285.074219 246.117188 286.066406 246.117188 C 287.476562 246.117188 288.691406 245.546875 289.734375 244.402344 C 290.773438 243.25 291.292969 241.902344 291.292969 240.34375 C 291.292969 237.742188 289.679688 235.59375 286.457031 233.910156 C 283.230469 232.21875 279.222656 231.371094 274.4375 231.371094 C 266.273438 231.371094 259.5625 234.089844 254.304688 239.527344 C 249.050781 244.960938 246.425781 251.949219 246.425781 260.472656 C 246.425781 268.953125 249.011719 275.910156 254.1875 281.347656 C 259.359375 286.785156 266.019531 289.492188 274.132812 289.492188 Z M 274.132812 289.492188"/></svg>