<svg width="16" height="20" viewBox="0 0 16 20" fill="none" xmlns="http://www.w3.org/2000/svg">
<path d="M6.99998 16.9C6.99998 17.152 7.10007 17.3936 7.27823 17.5718C7.45639 17.7499 7.69803 17.85 7.94998 17.85C8.20194 17.85 8.44357 17.7499 8.62173 17.5718C8.79989 17.3936 8.89998 17.152 8.89998 16.9H10.5C10.5 17.563 10.2366 18.1989 9.76775 18.6678C9.29891 19.1366 8.66302 19.4 7.99998 19.4C7.33694 19.4 6.70106 19.1366 6.23221 18.6678C5.76337 18.1989 5.49998 17.563 5.49998 16.9H6.99998ZM7.99998 0.600006H8.19998C9.19998 0.600006 9.99998 1.40001 10.2 2.40001V2.60001L10.3 2.80001H10.5C11.4773 3.24411 12.3176 3.94229 12.9332 4.82174C13.5488 5.70119 13.9172 6.72969 14 7.80001V11L15.2 12.4C15.4 12.6 15.5 12.9 15.5 13.2V14C15.4557 14.4624 15.2518 14.8949 14.9233 15.2233C14.5949 15.5518 14.1624 15.7557 13.7 15.8H2.39998C2.05163 15.7944 1.71078 15.698 1.41117 15.5202C1.11156 15.3424 0.863603 15.0894 0.691841 14.7863C0.520078 14.4832 0.430474 14.1405 0.431902 13.7921C0.433329 13.4437 0.52574 13.1017 0.699981 12.8L0.799981 12.6L1.99998 11.1V8.40001C1.98236 7.25428 2.29319 6.12748 2.8957 5.15282C3.49822 4.17816 4.36723 3.39641 5.39998 2.90001H5.59998L5.79998 2.80001V2.60001C5.99998 1.60001 6.79998 0.800006 7.79998 0.600006H7.99998ZM7.99998 2.20001C7.59998 2.20001 7.39998 2.50001 7.29998 2.80001V3.50001C7.29998 3.80001 7.09998 4.00001 6.89998 4.10001C5.9972 4.33134 5.19119 4.84334 4.59811 5.56222C4.00504 6.28109 3.65554 7.16972 3.59998 8.10001V11.4L3.49998 11.7L1.99998 13.6C1.96602 13.6507 1.94412 13.7086 1.93595 13.7691C1.92779 13.8296 1.93358 13.8911 1.95289 13.949C1.97219 14.007 2.0045 14.0597 2.04733 14.1032C2.09016 14.1467 2.14237 14.1798 2.19998 14.2H13.6C13.6534 14.1884 13.7038 14.166 13.7482 14.1342C13.7926 14.1023 13.83 14.0618 13.8581 14.0149C13.8863 13.9681 13.9045 13.9159 13.9117 13.8618C13.9189 13.8076 13.9149 13.7526 13.9 13.7V13.6L12.6 11.9L12.5 11.6V8.50001C12.5 6.50001 11.1 4.70001 9.09998 4.20001C8.9929 4.16294 8.8985 4.09631 8.82771 4.00782C8.75692 3.91934 8.71263 3.81261 8.69998 3.70001V3.00001C8.69998 2.60001 8.39998 2.30001 7.99998 2.30001V2.20001Z" fill="black"/>
</svg>
